<?xml version="1.0" encoding="utf-8"?>
<svg xmlns="http://www.w3.org/2000/svg" xmlns:xlink="http://www.w3.org/1999/xlink" width="600" height="400" viewBox="0 0 2400 1600">
<defs>
  <clipPath id="clip550">
    <rect x="0" y="0" width="2400" height="1600"/>
  </clipPath>
</defs>
<path clip-path="url(#clip550)" d="M0 1600 L2400 1600 L2400 0 L0 0  Z" fill="#ffffff" fill-rule="evenodd" fill-opacity="1"/>
<defs>
  <clipPath id="clip551">
    <rect x="480" y="0" width="1681" height="1600"/>
  </clipPath>
</defs>
<path clip-path="url(#clip550)" d="M118.659 1552.76 L2352.76 1552.76 L2352.76 113.552 L118.659 113.552  Z" fill="#ffffff" fill-rule="evenodd" fill-opacity="1"/>
<defs>
  <clipPath id="clip552">
    <rect x="118" y="113" width="2235" height="1440"/>
  </clipPath>
</defs>
<polyline clip-path="url(#clip550)" style="stroke:#000000; stroke-linecap:round; stroke-linejoin:round; stroke-width:4; stroke-opacity:1; fill:none" points="118.659,113.552 2352.76,113.552 "/>
<path clip-path="url(#clip550)" d="M202.128 81.777 L209.767 81.777 L209.767 55.4114 L201.457 57.078 L201.457 52.8188 L209.721 51.1521 L214.396 51.1521 L214.396 81.777 L222.035 81.777 L222.035 85.7121 L202.128 85.7121 L202.128 81.777 Z" fill="#000000" fill-rule="nonzero" fill-opacity="1" /><path clip-path="url(#clip550)" d="M392.574 81.777 L408.893 81.777 L408.893 85.7121 L386.949 85.7121 L386.949 81.777 Q389.611 79.0223 394.194 74.3927 Q398.8 69.74 399.981 68.3974 Q402.226 65.8743 403.106 64.1382 Q404.009 62.3789 404.009 60.6891 Q404.009 57.9345 402.064 56.1984 Q400.143 54.4623 397.041 54.4623 Q394.842 54.4623 392.388 55.2262 Q389.958 55.9901 387.18 57.541 L387.18 52.8188 Q390.004 51.6845 392.458 51.1058 Q394.912 50.5271 396.949 50.5271 Q402.319 50.5271 405.513 53.2123 Q408.708 55.8975 408.708 60.3882 Q408.708 62.5178 407.898 64.4391 Q407.111 66.3372 405.004 68.9298 Q404.425 69.6011 401.324 72.8187 Q398.222 76.0131 392.574 81.777 Z" fill="#000000" fill-rule="nonzero" fill-opacity="1" /><path clip-path="url(#clip550)" d="M588.343 67.078 Q591.7 67.7956 593.575 70.0641 Q595.473 72.3326 595.473 75.6659 Q595.473 80.7816 591.954 83.5825 Q588.436 86.3834 581.954 86.3834 Q579.778 86.3834 577.464 85.9436 Q575.172 85.5269 572.718 84.6705 L572.718 80.1566 Q574.663 81.2909 576.978 81.8696 Q579.292 82.4483 581.815 82.4483 Q586.214 82.4483 588.505 80.7122 Q590.82 78.9761 590.82 75.6659 Q590.82 72.6103 588.667 70.8974 Q586.538 69.1613 582.718 69.1613 L578.69 69.1613 L578.69 65.3187 L582.903 65.3187 Q586.352 65.3187 588.181 63.953 Q590.01 62.5641 590.01 59.9715 Q590.01 57.3095 588.112 55.8975 Q586.237 54.4623 582.718 54.4623 Q580.797 54.4623 578.598 54.879 Q576.399 55.2956 573.76 56.1752 L573.76 52.0086 Q576.422 51.2679 578.737 50.8975 Q581.075 50.5271 583.135 50.5271 Q588.459 50.5271 591.561 52.9577 Q594.663 55.3651 594.663 59.4854 Q594.663 62.3558 593.019 64.3465 Q591.376 66.3141 588.343 67.078 Z" fill="#000000" fill-rule="nonzero" fill-opacity="1" /><path clip-path="url(#clip550)" d="M773.28 55.2262 L761.474 73.6752 L773.28 73.6752 L773.28 55.2262 M772.053 51.1521 L777.932 51.1521 L777.932 73.6752 L782.863 73.6752 L782.863 77.564 L777.932 77.564 L777.932 85.7121 L773.28 85.7121 L773.28 77.564 L757.678 77.564 L757.678 73.0502 L772.053 51.1521 Z" fill="#000000" fill-rule="nonzero" fill-opacity="1" /><path clip-path="url(#clip550)" d="M946.723 51.1521 L965.079 51.1521 L965.079 55.0873 L951.005 55.0873 L951.005 63.5595 Q952.024 63.2122 953.042 63.0502 Q954.061 62.865 955.079 62.865 Q960.866 62.865 964.246 66.0363 Q967.626 69.2076 967.626 74.6242 Q967.626 80.2029 964.153 83.3047 Q960.681 86.3834 954.362 86.3834 Q952.186 86.3834 949.917 86.0131 Q947.672 85.6427 945.265 84.9019 L945.265 80.2029 Q947.348 81.3371 949.57 81.8927 Q951.792 82.4483 954.269 82.4483 Q958.274 82.4483 960.612 80.3418 Q962.95 78.2353 962.95 74.6242 Q962.95 71.0131 960.612 68.9067 Q958.274 66.8002 954.269 66.8002 Q952.394 66.8002 950.519 67.2169 Q948.667 67.6335 946.723 68.5131 L946.723 51.1521 Z" fill="#000000" fill-rule="nonzero" fill-opacity="1" /><path clip-path="url(#clip550)" d="M1143.02 66.5687 Q1139.88 66.5687 1138.02 68.7215 Q1136.2 70.8742 1136.2 74.6242 Q1136.2 78.3511 1138.02 80.527 Q1139.88 82.6797 1143.02 82.6797 Q1146.17 82.6797 1148 80.527 Q1149.85 78.3511 1149.85 74.6242 Q1149.85 70.8742 1148 68.7215 Q1146.17 66.5687 1143.02 66.5687 M1152.31 51.916 L1152.31 56.1752 Q1150.55 55.3419 1148.74 54.9021 Q1146.96 54.4623 1145.2 54.4623 Q1140.57 54.4623 1138.12 57.5873 Q1135.69 60.7123 1135.34 67.0317 Q1136.71 65.0178 1138.77 63.953 Q1140.83 62.865 1143.3 62.865 Q1148.51 62.865 1151.52 66.0363 Q1154.55 69.1844 1154.55 74.6242 Q1154.55 79.9483 1151.4 83.1658 Q1148.26 86.3834 1143.02 86.3834 Q1137.03 86.3834 1133.86 81.8001 Q1130.69 77.1937 1130.69 68.4668 Q1130.69 60.2724 1134.58 55.4114 Q1138.46 50.5271 1145.02 50.5271 Q1146.77 50.5271 1148.56 50.8743 Q1150.36 51.2216 1152.31 51.916 Z" fill="#000000" fill-rule="nonzero" fill-opacity="1" /><path clip-path="url(#clip550)" d="M1317.68 51.1521 L1339.91 51.1521 L1339.91 53.1429 L1327.36 85.7121 L1322.48 85.7121 L1334.28 55.0873 L1317.68 55.0873 L1317.68 51.1521 Z" fill="#000000" fill-rule="nonzero" fill-opacity="1" /><path clip-path="url(#clip550)" d="M1514.97 69.3002 Q1511.64 69.3002 1509.71 71.0826 Q1507.82 72.865 1507.82 75.99 Q1507.82 79.1149 1509.71 80.8973 Q1511.64 82.6797 1514.97 82.6797 Q1518.3 82.6797 1520.22 80.8973 Q1522.15 79.0918 1522.15 75.99 Q1522.15 72.865 1520.22 71.0826 Q1518.33 69.3002 1514.97 69.3002 M1510.29 67.3094 Q1507.28 66.5687 1505.59 64.5085 Q1503.93 62.4484 1503.93 59.4854 Q1503.93 55.3419 1506.87 52.9345 Q1509.83 50.5271 1514.97 50.5271 Q1520.13 50.5271 1523.07 52.9345 Q1526.01 55.3419 1526.01 59.4854 Q1526.01 62.4484 1524.32 64.5085 Q1522.65 66.5687 1519.67 67.3094 Q1523.05 68.0965 1524.92 70.3881 Q1526.82 72.6798 1526.82 75.99 Q1526.82 81.0131 1523.74 83.6982 Q1520.69 86.3834 1514.97 86.3834 Q1509.25 86.3834 1506.17 83.6982 Q1503.12 81.0131 1503.12 75.99 Q1503.12 72.6798 1505.02 70.3881 Q1506.91 68.0965 1510.29 67.3094 M1508.58 59.9252 Q1508.58 62.6104 1510.25 64.115 Q1511.94 65.6196 1514.97 65.6196 Q1517.98 65.6196 1519.67 64.115 Q1521.38 62.6104 1521.38 59.9252 Q1521.38 57.2401 1519.67 55.7354 Q1517.98 54.2308 1514.97 54.2308 Q1511.94 54.2308 1510.25 55.7354 Q1508.58 57.2401 1508.58 59.9252 Z" fill="#000000" fill-rule="nonzero" fill-opacity="1" /><path clip-path="url(#clip550)" d="M1691.45 84.9945 L1691.45 80.7353 Q1693.2 81.5686 1695.01 82.0084 Q1696.82 82.4483 1698.55 82.4483 Q1703.18 82.4483 1705.61 79.3464 Q1708.07 76.2214 1708.41 69.8789 Q1707.07 71.8696 1705.01 72.9344 Q1702.95 73.9992 1700.45 73.9992 Q1695.26 73.9992 1692.23 70.8742 Q1689.22 67.7261 1689.22 62.2863 Q1689.22 56.9623 1692.37 53.7447 Q1695.52 50.5271 1700.75 50.5271 Q1706.75 50.5271 1709.89 55.1336 Q1713.07 59.7169 1713.07 68.4668 Q1713.07 76.6381 1709.18 81.5223 Q1705.31 86.3834 1698.76 86.3834 Q1697 86.3834 1695.2 86.0362 Q1693.39 85.689 1691.45 84.9945 M1700.75 70.3418 Q1703.9 70.3418 1705.73 68.1891 Q1707.58 66.0363 1707.58 62.2863 Q1707.58 58.5595 1705.73 56.4067 Q1703.9 54.2308 1700.75 54.2308 Q1697.6 54.2308 1695.75 56.4067 Q1693.92 58.5595 1693.92 62.2863 Q1693.92 66.0363 1695.75 68.1891 Q1697.6 70.3418 1700.75 70.3418 Z" fill="#000000" fill-rule="nonzero" fill-opacity="1" /><path clip-path="url(#clip550)" d="M1862.01 81.777 L1869.65 81.777 L1869.65 55.4114 L1861.34 57.078 L1861.34 52.8188 L1869.6 51.1521 L1874.28 51.1521 L1874.28 81.777 L1881.91 81.777 L1881.91 85.7121 L1862.01 85.7121 L1862.01 81.777 Z" fill="#000000" fill-rule="nonzero" fill-opacity="1" /><path clip-path="url(#clip550)" d="M1901.36 54.2308 Q1897.75 54.2308 1895.92 57.7956 Q1894.11 61.3373 1894.11 68.4668 Q1894.11 75.5733 1895.92 79.1381 Q1897.75 82.6797 1901.36 82.6797 Q1904.99 82.6797 1906.8 79.1381 Q1908.63 75.5733 1908.63 68.4668 Q1908.63 61.3373 1906.8 57.7956 Q1904.99 54.2308 1901.36 54.2308 M1901.36 50.5271 Q1907.17 50.5271 1910.22 55.1336 Q1913.3 59.7169 1913.3 68.4668 Q1913.3 77.1937 1910.22 81.8001 Q1907.17 86.3834 1901.36 86.3834 Q1895.55 86.3834 1892.47 81.8001 Q1889.41 77.1937 1889.41 68.4668 Q1889.41 59.7169 1892.47 55.1336 Q1895.55 50.5271 1901.36 50.5271 Z" fill="#000000" fill-rule="nonzero" fill-opacity="1" /><path clip-path="url(#clip550)" d="M2048.79 81.777 L2056.43 81.777 L2056.43 55.4114 L2048.12 57.078 L2048.12 52.8188 L2056.39 51.1521 L2061.06 51.1521 L2061.06 81.777 L2068.7 81.777 L2068.7 85.7121 L2048.79 85.7121 L2048.79 81.777 Z" fill="#000000" fill-rule="nonzero" fill-opacity="1" /><path clip-path="url(#clip550)" d="M2078.96 81.777 L2086.6 81.777 L2086.6 55.4114 L2078.29 57.078 L2078.29 52.8188 L2086.55 51.1521 L2091.23 51.1521 L2091.23 81.777 L2098.86 81.777 L2098.86 85.7121 L2078.96 85.7121 L2078.96 81.777 Z" fill="#000000" fill-rule="nonzero" fill-opacity="1" /><path clip-path="url(#clip550)" d="M2235.15 81.777 L2242.79 81.777 L2242.79 55.4114 L2234.48 57.078 L2234.48 52.8188 L2242.75 51.1521 L2247.42 51.1521 L2247.42 81.777 L2255.06 81.777 L2255.06 85.7121 L2235.15 85.7121 L2235.15 81.777 Z" fill="#000000" fill-rule="nonzero" fill-opacity="1" /><path clip-path="url(#clip550)" d="M2268.53 81.777 L2284.85 81.777 L2284.85 85.7121 L2262.91 85.7121 L2262.91 81.777 Q2265.57 79.0223 2270.15 74.3927 Q2274.76 69.74 2275.94 68.3974 Q2278.19 65.8743 2279.07 64.1382 Q2279.97 62.3789 2279.97 60.6891 Q2279.97 57.9345 2278.02 56.1984 Q2276.1 54.4623 2273 54.4623 Q2270.8 54.4623 2268.35 55.2262 Q2265.92 55.9901 2263.14 57.541 L2263.14 52.8188 Q2265.96 51.6845 2268.42 51.1058 Q2270.87 50.5271 2272.91 50.5271 Q2278.28 50.5271 2281.47 53.2123 Q2284.67 55.8975 2284.67 60.3882 Q2284.67 62.5178 2283.86 64.4391 Q2283.07 66.3372 2280.96 68.9298 Q2280.39 69.6011 2277.28 72.8187 Q2274.18 76.0131 2268.53 81.777 Z" fill="#000000" fill-rule="nonzero" fill-opacity="1" /><polyline clip-path="url(#clip550)" style="stroke:#000000; stroke-linecap:round; stroke-linejoin:round; stroke-width:4; stroke-opacity:1; fill:none" points="118.659,113.552 118.659,1552.76 "/>
<path clip-path="url(#clip550)" d="M66.8254 190.829 L60.4828 208.028 L73.1911 208.028 L66.8254 190.829 M64.1865 186.222 L69.4874 186.222 L82.6586 220.782 L77.7975 220.782 L74.6494 211.917 L59.0708 211.917 L55.9227 220.782 L50.9921 220.782 L64.1865 186.222 Z" fill="#000000" fill-rule="nonzero" fill-opacity="1" /><path clip-path="url(#clip550)" d="M62.8208 384.178 L62.8208 396.84 L70.3207 396.84 Q74.0939 396.84 75.8994 395.289 Q77.7281 393.715 77.7281 390.498 Q77.7281 387.257 75.8994 385.729 Q74.0939 384.178 70.3207 384.178 L62.8208 384.178 M62.8208 369.965 L62.8208 380.382 L69.742 380.382 Q73.1679 380.382 74.8346 379.109 Q76.5244 377.813 76.5244 375.174 Q76.5244 372.558 74.8346 371.262 Q73.1679 369.965 69.742 369.965 L62.8208 369.965 M58.1449 366.123 L70.0892 366.123 Q75.4364 366.123 78.3299 368.345 Q81.2234 370.567 81.2234 374.664 Q81.2234 377.836 79.742 379.711 Q78.2605 381.586 75.3901 382.049 Q78.8392 382.789 80.7373 385.151 Q82.6586 387.488 82.6586 391.007 Q82.6586 395.637 79.5105 398.16 Q76.3624 400.683 70.5522 400.683 L58.1449 400.683 L58.1449 366.123 Z" fill="#000000" fill-rule="nonzero" fill-opacity="1" /><path clip-path="url(#clip550)" d="M82.6586 548.685 L82.6586 553.616 Q80.2975 551.417 77.6124 550.329 Q74.9503 549.241 71.9411 549.241 Q66.0152 549.241 62.8671 552.875 Q59.7189 556.486 59.7189 563.338 Q59.7189 570.167 62.8671 573.801 Q66.0152 577.412 71.9411 577.412 Q74.9503 577.412 77.6124 576.324 Q80.2975 575.236 82.6586 573.037 L82.6586 577.921 Q80.2049 579.588 77.4503 580.421 Q74.7189 581.255 71.6633 581.255 Q63.8161 581.255 59.3023 576.463 Q54.7884 571.648 54.7884 563.338 Q54.7884 555.005 59.3023 550.213 Q63.8161 545.398 71.6633 545.398 Q74.7651 545.398 77.4966 546.232 Q80.2512 547.042 82.6586 548.685 Z" fill="#000000" fill-rule="nonzero" fill-opacity="1" /><path clip-path="url(#clip550)" d="M58.2838 729.766 L58.2838 756.641 L63.9319 756.641 Q71.0846 756.641 74.3948 753.4 Q77.7281 750.16 77.7281 743.169 Q77.7281 736.225 74.3948 733.007 Q71.0846 729.766 63.9319 729.766 L58.2838 729.766 M53.6079 725.924 L63.2143 725.924 Q73.2605 725.924 77.9596 730.114 Q82.6586 734.28 82.6586 743.169 Q82.6586 752.104 77.9364 756.294 Q73.2142 760.484 63.2143 760.484 L53.6079 760.484 L53.6079 725.924 Z" fill="#000000" fill-rule="nonzero" fill-opacity="1" /><path clip-path="url(#clip550)" d="M60.3902 905.824 L82.242 905.824 L82.242 909.759 L65.0661 909.759 L65.0661 919.991 L81.5244 919.991 L81.5244 923.926 L65.0661 923.926 L65.0661 936.449 L82.6586 936.449 L82.6586 940.384 L60.3902 940.384 L60.3902 905.824 Z" fill="#000000" fill-rule="nonzero" fill-opacity="1" /><path clip-path="url(#clip550)" d="M62.7976 1085.72 L82.6586 1085.72 L82.6586 1089.66 L67.4735 1089.66 L67.4735 1099.85 L81.1771 1099.85 L81.1771 1103.78 L67.4735 1103.78 L67.4735 1120.28 L62.7976 1120.28 L62.7976 1085.72 Z" fill="#000000" fill-rule="nonzero" fill-opacity="1" /><path clip-path="url(#clip550)" d="M78.029 1295.25 L78.029 1285.97 L70.3902 1285.97 L70.3902 1282.13 L82.6586 1282.13 L82.6586 1296.97 Q79.9503 1298.89 76.6864 1299.88 Q73.4226 1300.86 69.7189 1300.86 Q61.6171 1300.86 57.0338 1296.13 Q52.4736 1291.39 52.4736 1282.94 Q52.4736 1274.47 57.0338 1269.75 Q61.6171 1265 69.7189 1265 Q73.0985 1265 76.1309 1265.83 Q79.1864 1266.67 81.7559 1268.29 L81.7559 1273.26 Q79.1633 1271.06 76.2466 1269.95 Q73.33 1268.84 70.1124 1268.84 Q63.7698 1268.84 60.5754 1272.38 Q57.4041 1275.93 57.4041 1282.94 Q57.4041 1289.93 60.5754 1293.47 Q63.7698 1297.01 70.1124 1297.01 Q72.5892 1297.01 74.5337 1296.6 Q76.4781 1296.16 78.029 1295.25 Z" fill="#000000" fill-rule="nonzero" fill-opacity="1" /><path clip-path="url(#clip550)" d="M56.3162 1445.53 L60.9921 1445.53 L60.9921 1459.69 L77.9827 1459.69 L77.9827 1445.53 L82.6586 1445.53 L82.6586 1480.09 L77.9827 1480.09 L77.9827 1463.63 L60.9921 1463.63 L60.9921 1480.09 L56.3162 1480.09 L56.3162 1445.53 Z" fill="#000000" fill-rule="nonzero" fill-opacity="1" /><path clip-path="url(#clip552)" d="M118.659 113.552 L304.833 113.552 L304.833 293.453 L118.659 293.453 L118.659 113.552  Z" fill="#b3e2cd" fill-rule="evenodd" fill-opacity="1"/>
<polyline clip-path="url(#clip552)" style="stroke:#000000; stroke-linecap:round; stroke-linejoin:round; stroke-width:4; stroke-opacity:1; fill:none" points="118.659,113.552 304.833,113.552 304.833,293.453 118.659,293.453 118.659,113.552 "/>
<path clip-path="url(#clip552)" d="M118.659 113.552 L304.833 113.552 L304.833 293.453 L118.659 293.453 L118.659 113.552  Z" fill="#ff0000" fill-rule="evenodd" fill-opacity="1"/>
<polyline clip-path="url(#clip552)" style="stroke:#000000; stroke-linecap:round; stroke-linejoin:round; stroke-width:4; stroke-opacity:1; fill:none" points="118.659,113.552 304.833,113.552 304.833,293.453 118.659,293.453 118.659,113.552 "/>
<path clip-path="url(#clip552)" d="M155.894 149.532 L267.598 149.532 L267.598 257.473 L155.894 257.473 L155.894 149.532  Z" fill="#b3e2cd" fill-rule="evenodd" fill-opacity="1"/>
<polyline clip-path="url(#clip552)" style="stroke:#000000; stroke-linecap:round; stroke-linejoin:round; stroke-width:0; stroke-opacity:1; fill:none" points="155.894,149.532 267.598,149.532 267.598,257.473 155.894,257.473 155.894,149.532 "/>
<path clip-path="url(#clip552)" d="M118.659 293.453 L304.833 293.453 L304.833 473.353 L118.659 473.353 L118.659 293.453  Z" fill="#b3e2cd" fill-rule="evenodd" fill-opacity="1"/>
<polyline clip-path="url(#clip552)" style="stroke:#000000; stroke-linecap:round; stroke-linejoin:round; stroke-width:4; stroke-opacity:1; fill:none" points="118.659,293.453 304.833,293.453 304.833,473.353 118.659,473.353 118.659,293.453 "/>
<path clip-path="url(#clip552)" d="M118.659 473.353 L304.833 473.353 L304.833 653.254 L118.659 653.254 L118.659 473.353  Z" fill="#b3e2cd" fill-rule="evenodd" fill-opacity="1"/>
<polyline clip-path="url(#clip552)" style="stroke:#000000; stroke-linecap:round; stroke-linejoin:round; stroke-width:4; stroke-opacity:1; fill:none" points="118.659,473.353 304.833,473.353 304.833,653.254 118.659,653.254 118.659,473.353 "/>
<path clip-path="url(#clip552)" d="M118.659 653.254 L304.833 653.254 L304.833 833.154 L118.659 833.154 L118.659 653.254  Z" fill="#b3e2cd" fill-rule="evenodd" fill-opacity="1"/>
<polyline clip-path="url(#clip552)" style="stroke:#000000; stroke-linecap:round; stroke-linejoin:round; stroke-width:4; stroke-opacity:1; fill:none" points="118.659,653.254 304.833,653.254 304.833,833.154 118.659,833.154 118.659,653.254 "/>
<path clip-path="url(#clip552)" d="M118.659 833.154 L304.833 833.154 L304.833 1013.05 L118.659 1013.05 L118.659 833.154  Z" fill="#b3e2cd" fill-rule="evenodd" fill-opacity="1"/>
<polyline clip-path="url(#clip552)" style="stroke:#000000; stroke-linecap:round; stroke-linejoin:round; stroke-width:4; stroke-opacity:1; fill:none" points="118.659,833.154 304.833,833.154 304.833,1013.05 118.659,1013.05 118.659,833.154 "/>
<path clip-path="url(#clip552)" d="M118.659 833.154 L304.833 833.154 L304.833 1013.05 L118.659 1013.05 L118.659 833.154  Z" fill="#0000ff" fill-rule="evenodd" fill-opacity="1"/>
<polyline clip-path="url(#clip552)" style="stroke:#000000; stroke-linecap:round; stroke-linejoin:round; stroke-width:4; stroke-opacity:1; fill:none" points="118.659,833.154 304.833,833.154 304.833,1013.05 118.659,1013.05 118.659,833.154 "/>
<path clip-path="url(#clip552)" d="M155.894 869.134 L267.598 869.134 L267.598 977.074 L155.894 977.074 L155.894 869.134  Z" fill="#b3e2cd" fill-rule="evenodd" fill-opacity="1"/>
<polyline clip-path="url(#clip552)" style="stroke:#000000; stroke-linecap:round; stroke-linejoin:round; stroke-width:0; stroke-opacity:1; fill:none" points="155.894,869.134 267.598,869.134 267.598,977.074 155.894,977.074 155.894,869.134 "/>
<path clip-path="url(#clip552)" d="M118.659 1013.05 L304.833 1013.05 L304.833 1192.95 L118.659 1192.95 L118.659 1013.05  Z" fill="#b3e2cd" fill-rule="evenodd" fill-opacity="1"/>
<polyline clip-path="url(#clip552)" style="stroke:#000000; stroke-linecap:round; stroke-linejoin:round; stroke-width:4; stroke-opacity:1; fill:none" points="118.659,1013.05 304.833,1013.05 304.833,1192.95 118.659,1192.95 118.659,1013.05 "/>
<path clip-path="url(#clip552)" d="M118.659 1192.95 L304.833 1192.95 L304.833 1372.86 L118.659 1372.86 L118.659 1192.95  Z" fill="#b3e2cd" fill-rule="evenodd" fill-opacity="1"/>
<polyline clip-path="url(#clip552)" style="stroke:#000000; stroke-linecap:round; stroke-linejoin:round; stroke-width:4; stroke-opacity:1; fill:none" points="118.659,1192.95 304.833,1192.95 304.833,1372.86 118.659,1372.86 118.659,1192.95 "/>
<path clip-path="url(#clip552)" d="M118.659 1192.95 L304.833 1192.95 L304.833 1372.86 L118.659 1372.86 L118.659 1192.95  Z" fill="#ff0000" fill-rule="evenodd" fill-opacity="1"/>
<polyline clip-path="url(#clip552)" style="stroke:#000000; stroke-linecap:round; stroke-linejoin:round; stroke-width:4; stroke-opacity:1; fill:none" points="118.659,1192.95 304.833,1192.95 304.833,1372.86 118.659,1372.86 118.659,1192.95 "/>
<path clip-path="url(#clip552)" d="M155.894 1228.94 L267.598 1228.94 L267.598 1336.88 L155.894 1336.88 L155.894 1228.94  Z" fill="#b3e2cd" fill-rule="evenodd" fill-opacity="1"/>
<polyline clip-path="url(#clip552)" style="stroke:#000000; stroke-linecap:round; stroke-linejoin:round; stroke-width:0; stroke-opacity:1; fill:none" points="155.894,1228.94 267.598,1228.94 267.598,1336.88 155.894,1336.88 155.894,1228.94 "/>
<path clip-path="url(#clip552)" d="M118.659 1372.86 L304.833 1372.86 L304.833 1552.76 L118.659 1552.76 L118.659 1372.86  Z" fill="#b3e2cd" fill-rule="evenodd" fill-opacity="1"/>
<polyline clip-path="url(#clip552)" style="stroke:#000000; stroke-linecap:round; stroke-linejoin:round; stroke-width:4; stroke-opacity:1; fill:none" points="118.659,1372.86 304.833,1372.86 304.833,1552.76 118.659,1552.76 118.659,1372.86 "/>
<path clip-path="url(#clip552)" d="M304.833 113.552 L491.008 113.552 L491.008 293.453 L304.833 293.453 L304.833 113.552  Z" fill="#b3e2cd" fill-rule="evenodd" fill-opacity="1"/>
<polyline clip-path="url(#clip552)" style="stroke:#000000; stroke-linecap:round; stroke-linejoin:round; stroke-width:4; stroke-opacity:1; fill:none" points="304.833,113.552 491.008,113.552 491.008,293.453 304.833,293.453 304.833,113.552 "/>
<path clip-path="url(#clip552)" d="M304.833 293.453 L491.008 293.453 L491.008 473.353 L304.833 473.353 L304.833 293.453  Z" fill="#b3e2cd" fill-rule="evenodd" fill-opacity="1"/>
<polyline clip-path="url(#clip552)" style="stroke:#000000; stroke-linecap:round; stroke-linejoin:round; stroke-width:4; stroke-opacity:1; fill:none" points="304.833,293.453 491.008,293.453 491.008,473.353 304.833,473.353 304.833,293.453 "/>
<path clip-path="url(#clip552)" d="M304.833 293.453 L491.008 293.453 L491.008 473.353 L304.833 473.353 L304.833 293.453  Z" fill="#0000ff" fill-rule="evenodd" fill-opacity="1"/>
<polyline clip-path="url(#clip552)" style="stroke:#000000; stroke-linecap:round; stroke-linejoin:round; stroke-width:4; stroke-opacity:1; fill:none" points="304.833,293.453 491.008,293.453 491.008,473.353 304.833,473.353 304.833,293.453 "/>
<path clip-path="url(#clip552)" d="M342.068 329.433 L453.773 329.433 L453.773 437.373 L342.068 437.373 L342.068 329.433  Z" fill="#b3e2cd" fill-rule="evenodd" fill-opacity="1"/>
<polyline clip-path="url(#clip552)" style="stroke:#000000; stroke-linecap:round; stroke-linejoin:round; stroke-width:0; stroke-opacity:1; fill:none" points="342.068,329.433 453.773,329.433 453.773,437.373 342.068,437.373 342.068,329.433 "/>
<path clip-path="url(#clip552)" d="M304.833 473.353 L491.008 473.353 L491.008 653.254 L304.833 653.254 L304.833 473.353  Z" fill="#b3e2cd" fill-rule="evenodd" fill-opacity="1"/>
<polyline clip-path="url(#clip552)" style="stroke:#000000; stroke-linecap:round; stroke-linejoin:round; stroke-width:4; stroke-opacity:1; fill:none" points="304.833,473.353 491.008,473.353 491.008,653.254 304.833,653.254 304.833,473.353 "/>
<path clip-path="url(#clip552)" d="M304.833 473.353 L491.008 473.353 L491.008 653.254 L304.833 653.254 L304.833 473.353  Z" fill="#ff0000" fill-rule="evenodd" fill-opacity="1"/>
<polyline clip-path="url(#clip552)" style="stroke:#000000; stroke-linecap:round; stroke-linejoin:round; stroke-width:4; stroke-opacity:1; fill:none" points="304.833,473.353 491.008,473.353 491.008,653.254 304.833,653.254 304.833,473.353 "/>
<path clip-path="url(#clip552)" d="M342.068 509.333 L453.773 509.333 L453.773 617.273 L342.068 617.273 L342.068 509.333  Z" fill="#b3e2cd" fill-rule="evenodd" fill-opacity="1"/>
<polyline clip-path="url(#clip552)" style="stroke:#000000; stroke-linecap:round; stroke-linejoin:round; stroke-width:0; stroke-opacity:1; fill:none" points="342.068,509.333 453.773,509.333 453.773,617.273 342.068,617.273 342.068,509.333 "/>
<path clip-path="url(#clip552)" d="M304.833 653.254 L491.008 653.254 L491.008 833.154 L304.833 833.154 L304.833 653.254  Z" fill="#b3e2cd" fill-rule="evenodd" fill-opacity="1"/>
<polyline clip-path="url(#clip552)" style="stroke:#000000; stroke-linecap:round; stroke-linejoin:round; stroke-width:4; stroke-opacity:1; fill:none" points="304.833,653.254 491.008,653.254 491.008,833.154 304.833,833.154 304.833,653.254 "/>
<path clip-path="url(#clip552)" d="M304.833 833.154 L491.008 833.154 L491.008 1013.05 L304.833 1013.05 L304.833 833.154  Z" fill="#b3e2cd" fill-rule="evenodd" fill-opacity="1"/>
<polyline clip-path="url(#clip552)" style="stroke:#000000; stroke-linecap:round; stroke-linejoin:round; stroke-width:4; stroke-opacity:1; fill:none" points="304.833,833.154 491.008,833.154 491.008,1013.05 304.833,1013.05 304.833,833.154 "/>
<path clip-path="url(#clip552)" d="M304.833 1013.05 L491.008 1013.05 L491.008 1192.95 L304.833 1192.95 L304.833 1013.05  Z" fill="#b3e2cd" fill-rule="evenodd" fill-opacity="1"/>
<polyline clip-path="url(#clip552)" style="stroke:#000000; stroke-linecap:round; stroke-linejoin:round; stroke-width:4; stroke-opacity:1; fill:none" points="304.833,1013.05 491.008,1013.05 491.008,1192.95 304.833,1192.95 304.833,1013.05 "/>
<path clip-path="url(#clip552)" d="M304.833 1192.95 L491.008 1192.95 L491.008 1372.86 L304.833 1372.86 L304.833 1192.95  Z" fill="#b3e2cd" fill-rule="evenodd" fill-opacity="1"/>
<polyline clip-path="url(#clip552)" style="stroke:#000000; stroke-linecap:round; stroke-linejoin:round; stroke-width:4; stroke-opacity:1; fill:none" points="304.833,1192.95 491.008,1192.95 491.008,1372.86 304.833,1372.86 304.833,1192.95 "/>
<path clip-path="url(#clip552)" d="M304.833 1372.86 L491.008 1372.86 L491.008 1552.76 L304.833 1552.76 L304.833 1372.86  Z" fill="#b3e2cd" fill-rule="evenodd" fill-opacity="1"/>
<polyline clip-path="url(#clip552)" style="stroke:#000000; stroke-linecap:round; stroke-linejoin:round; stroke-width:4; stroke-opacity:1; fill:none" points="304.833,1372.86 491.008,1372.86 491.008,1552.76 304.833,1552.76 304.833,1372.86 "/>
<path clip-path="url(#clip552)" d="M304.833 1372.86 L491.008 1372.86 L491.008 1552.76 L304.833 1552.76 L304.833 1372.86  Z" fill="#0000ff" fill-rule="evenodd" fill-opacity="1"/>
<polyline clip-path="url(#clip552)" style="stroke:#000000; stroke-linecap:round; stroke-linejoin:round; stroke-width:4; stroke-opacity:1; fill:none" points="304.833,1372.86 491.008,1372.86 491.008,1552.76 304.833,1552.76 304.833,1372.86 "/>
<path clip-path="url(#clip552)" d="M342.068 1408.84 L453.773 1408.84 L453.773 1516.78 L342.068 1516.78 L342.068 1408.84  Z" fill="#b3e2cd" fill-rule="evenodd" fill-opacity="1"/>
<polyline clip-path="url(#clip552)" style="stroke:#000000; stroke-linecap:round; stroke-linejoin:round; stroke-width:0; stroke-opacity:1; fill:none" points="342.068,1408.84 453.773,1408.84 453.773,1516.78 342.068,1516.78 342.068,1408.84 "/>
<path clip-path="url(#clip552)" d="M491.008 113.552 L677.183 113.552 L677.183 293.453 L491.008 293.453 L491.008 113.552  Z" fill="#b3e2cd" fill-rule="evenodd" fill-opacity="1"/>
<polyline clip-path="url(#clip552)" style="stroke:#000000; stroke-linecap:round; stroke-linejoin:round; stroke-width:4; stroke-opacity:1; fill:none" points="491.008,113.552 677.183,113.552 677.183,293.453 491.008,293.453 491.008,113.552 "/>
<path clip-path="url(#clip552)" d="M491.008 113.552 L677.183 113.552 L677.183 293.453 L491.008 293.453 L491.008 113.552  Z" fill="#ff0000" fill-rule="evenodd" fill-opacity="1"/>
<polyline clip-path="url(#clip552)" style="stroke:#000000; stroke-linecap:round; stroke-linejoin:round; stroke-width:4; stroke-opacity:1; fill:none" points="491.008,113.552 677.183,113.552 677.183,293.453 491.008,293.453 491.008,113.552 "/>
<path clip-path="url(#clip552)" d="M528.243 149.532 L639.948 149.532 L639.948 257.473 L528.243 257.473 L528.243 149.532  Z" fill="#b3e2cd" fill-rule="evenodd" fill-opacity="1"/>
<polyline clip-path="url(#clip552)" style="stroke:#000000; stroke-linecap:round; stroke-linejoin:round; stroke-width:0; stroke-opacity:1; fill:none" points="528.243,149.532 639.948,149.532 639.948,257.473 528.243,257.473 528.243,149.532 "/>
<path clip-path="url(#clip552)" d="M491.008 293.453 L677.183 293.453 L677.183 473.353 L491.008 473.353 L491.008 293.453  Z" fill="#b3e2cd" fill-rule="evenodd" fill-opacity="1"/>
<polyline clip-path="url(#clip552)" style="stroke:#000000; stroke-linecap:round; stroke-linejoin:round; stroke-width:4; stroke-opacity:1; fill:none" points="491.008,293.453 677.183,293.453 677.183,473.353 491.008,473.353 491.008,293.453 "/>
<path clip-path="url(#clip552)" d="M491.008 473.353 L677.183 473.353 L677.183 653.254 L491.008 653.254 L491.008 473.353  Z" fill="#b3e2cd" fill-rule="evenodd" fill-opacity="1"/>
<polyline clip-path="url(#clip552)" style="stroke:#000000; stroke-linecap:round; stroke-linejoin:round; stroke-width:4; stroke-opacity:1; fill:none" points="491.008,473.353 677.183,473.353 677.183,653.254 491.008,653.254 491.008,473.353 "/>
<path clip-path="url(#clip552)" d="M491.008 653.254 L677.183 653.254 L677.183 833.154 L491.008 833.154 L491.008 653.254  Z" fill="#b3e2cd" fill-rule="evenodd" fill-opacity="1"/>
<polyline clip-path="url(#clip552)" style="stroke:#000000; stroke-linecap:round; stroke-linejoin:round; stroke-width:4; stroke-opacity:1; fill:none" points="491.008,653.254 677.183,653.254 677.183,833.154 491.008,833.154 491.008,653.254 "/>
<path clip-path="url(#clip552)" d="M491.008 653.254 L677.183 653.254 L677.183 833.154 L491.008 833.154 L491.008 653.254  Z" fill="#0000ff" fill-rule="evenodd" fill-opacity="1"/>
<polyline clip-path="url(#clip552)" style="stroke:#000000; stroke-linecap:round; stroke-linejoin:round; stroke-width:4; stroke-opacity:1; fill:none" points="491.008,653.254 677.183,653.254 677.183,833.154 491.008,833.154 491.008,653.254 "/>
<path clip-path="url(#clip552)" d="M528.243 689.234 L639.948 689.234 L639.948 797.174 L528.243 797.174 L528.243 689.234  Z" fill="#b3e2cd" fill-rule="evenodd" fill-opacity="1"/>
<polyline clip-path="url(#clip552)" style="stroke:#000000; stroke-linecap:round; stroke-linejoin:round; stroke-width:0; stroke-opacity:1; fill:none" points="528.243,689.234 639.948,689.234 639.948,797.174 528.243,797.174 528.243,689.234 "/>
<path clip-path="url(#clip552)" d="M491.008 833.154 L677.183 833.154 L677.183 1013.05 L491.008 1013.05 L491.008 833.154  Z" fill="#b3e2cd" fill-rule="evenodd" fill-opacity="1"/>
<polyline clip-path="url(#clip552)" style="stroke:#000000; stroke-linecap:round; stroke-linejoin:round; stroke-width:4; stroke-opacity:1; fill:none" points="491.008,833.154 677.183,833.154 677.183,1013.05 491.008,1013.05 491.008,833.154 "/>
<path clip-path="url(#clip552)" d="M491.008 1013.05 L677.183 1013.05 L677.183 1192.95 L491.008 1192.95 L491.008 1013.05  Z" fill="#b3e2cd" fill-rule="evenodd" fill-opacity="1"/>
<polyline clip-path="url(#clip552)" style="stroke:#000000; stroke-linecap:round; stroke-linejoin:round; stroke-width:4; stroke-opacity:1; fill:none" points="491.008,1013.05 677.183,1013.05 677.183,1192.95 491.008,1192.95 491.008,1013.05 "/>
<path clip-path="url(#clip552)" d="M491.008 1192.95 L677.183 1192.95 L677.183 1372.86 L491.008 1372.86 L491.008 1192.95  Z" fill="#b3e2cd" fill-rule="evenodd" fill-opacity="1"/>
<polyline clip-path="url(#clip552)" style="stroke:#000000; stroke-linecap:round; stroke-linejoin:round; stroke-width:4; stroke-opacity:1; fill:none" points="491.008,1192.95 677.183,1192.95 677.183,1372.86 491.008,1372.86 491.008,1192.95 "/>
<path clip-path="url(#clip552)" d="M491.008 1372.86 L677.183 1372.86 L677.183 1552.76 L491.008 1552.76 L491.008 1372.86  Z" fill="#b3e2cd" fill-rule="evenodd" fill-opacity="1"/>
<polyline clip-path="url(#clip552)" style="stroke:#000000; stroke-linecap:round; stroke-linejoin:round; stroke-width:4; stroke-opacity:1; fill:none" points="491.008,1372.86 677.183,1372.86 677.183,1552.76 491.008,1552.76 491.008,1372.86 "/>
<path clip-path="url(#clip552)" d="M491.008 1372.86 L677.183 1372.86 L677.183 1552.76 L491.008 1552.76 L491.008 1372.86  Z" fill="#ff0000" fill-rule="evenodd" fill-opacity="1"/>
<polyline clip-path="url(#clip552)" style="stroke:#000000; stroke-linecap:round; stroke-linejoin:round; stroke-width:4; stroke-opacity:1; fill:none" points="491.008,1372.86 677.183,1372.86 677.183,1552.76 491.008,1552.76 491.008,1372.86 "/>
<path clip-path="url(#clip552)" d="M528.243 1408.84 L639.948 1408.84 L639.948 1516.78 L528.243 1516.78 L528.243 1408.84  Z" fill="#b3e2cd" fill-rule="evenodd" fill-opacity="1"/>
<polyline clip-path="url(#clip552)" style="stroke:#000000; stroke-linecap:round; stroke-linejoin:round; stroke-width:0; stroke-opacity:1; fill:none" points="528.243,1408.84 639.948,1408.84 639.948,1516.78 528.243,1516.78 528.243,1408.84 "/>
<path clip-path="url(#clip552)" d="M677.183 113.552 L863.358 113.552 L863.358 293.453 L677.183 293.453 L677.183 113.552  Z" fill="#b3e2cd" fill-rule="evenodd" fill-opacity="1"/>
<polyline clip-path="url(#clip552)" style="stroke:#000000; stroke-linecap:round; stroke-linejoin:round; stroke-width:4; stroke-opacity:1; fill:none" points="677.183,113.552 863.358,113.552 863.358,293.453 677.183,293.453 677.183,113.552 "/>
<path clip-path="url(#clip552)" d="M677.183 293.453 L863.358 293.453 L863.358 473.353 L677.183 473.353 L677.183 293.453  Z" fill="#b3e2cd" fill-rule="evenodd" fill-opacity="1"/>
<polyline clip-path="url(#clip552)" style="stroke:#000000; stroke-linecap:round; stroke-linejoin:round; stroke-width:4; stroke-opacity:1; fill:none" points="677.183,293.453 863.358,293.453 863.358,473.353 677.183,473.353 677.183,293.453 "/>
<path clip-path="url(#clip552)" d="M677.183 473.353 L863.358 473.353 L863.358 653.254 L677.183 653.254 L677.183 473.353  Z" fill="#b3e2cd" fill-rule="evenodd" fill-opacity="1"/>
<polyline clip-path="url(#clip552)" style="stroke:#000000; stroke-linecap:round; stroke-linejoin:round; stroke-width:4; stroke-opacity:1; fill:none" points="677.183,473.353 863.358,473.353 863.358,653.254 677.183,653.254 677.183,473.353 "/>
<path clip-path="url(#clip552)" d="M677.183 653.254 L863.358 653.254 L863.358 833.154 L677.183 833.154 L677.183 653.254  Z" fill="#b3e2cd" fill-rule="evenodd" fill-opacity="1"/>
<polyline clip-path="url(#clip552)" style="stroke:#000000; stroke-linecap:round; stroke-linejoin:round; stroke-width:4; stroke-opacity:1; fill:none" points="677.183,653.254 863.358,653.254 863.358,833.154 677.183,833.154 677.183,653.254 "/>
<path clip-path="url(#clip552)" d="M677.183 653.254 L863.358 653.254 L863.358 833.154 L677.183 833.154 L677.183 653.254  Z" fill="#ff0000" fill-rule="evenodd" fill-opacity="1"/>
<polyline clip-path="url(#clip552)" style="stroke:#000000; stroke-linecap:round; stroke-linejoin:round; stroke-width:4; stroke-opacity:1; fill:none" points="677.183,653.254 863.358,653.254 863.358,833.154 677.183,833.154 677.183,653.254 "/>
<path clip-path="url(#clip552)" d="M714.418 689.234 L826.123 689.234 L826.123 797.174 L714.418 797.174 L714.418 689.234  Z" fill="#b3e2cd" fill-rule="evenodd" fill-opacity="1"/>
<polyline clip-path="url(#clip552)" style="stroke:#000000; stroke-linecap:round; stroke-linejoin:round; stroke-width:0; stroke-opacity:1; fill:none" points="714.418,689.234 826.123,689.234 826.123,797.174 714.418,797.174 714.418,689.234 "/>
<path clip-path="url(#clip552)" d="M677.183 833.154 L863.358 833.154 L863.358 1013.05 L677.183 1013.05 L677.183 833.154  Z" fill="#b3e2cd" fill-rule="evenodd" fill-opacity="1"/>
<polyline clip-path="url(#clip552)" style="stroke:#000000; stroke-linecap:round; stroke-linejoin:round; stroke-width:4; stroke-opacity:1; fill:none" points="677.183,833.154 863.358,833.154 863.358,1013.05 677.183,1013.05 677.183,833.154 "/>
<path clip-path="url(#clip552)" d="M677.183 1013.05 L863.358 1013.05 L863.358 1192.95 L677.183 1192.95 L677.183 1013.05  Z" fill="#b3e2cd" fill-rule="evenodd" fill-opacity="1"/>
<polyline clip-path="url(#clip552)" style="stroke:#000000; stroke-linecap:round; stroke-linejoin:round; stroke-width:4; stroke-opacity:1; fill:none" points="677.183,1013.05 863.358,1013.05 863.358,1192.95 677.183,1192.95 677.183,1013.05 "/>
<path clip-path="url(#clip552)" d="M677.183 1013.05 L863.358 1013.05 L863.358 1192.95 L677.183 1192.95 L677.183 1013.05  Z" fill="#0000ff" fill-rule="evenodd" fill-opacity="1"/>
<polyline clip-path="url(#clip552)" style="stroke:#000000; stroke-linecap:round; stroke-linejoin:round; stroke-width:4; stroke-opacity:1; fill:none" points="677.183,1013.05 863.358,1013.05 863.358,1192.95 677.183,1192.95 677.183,1013.05 "/>
<path clip-path="url(#clip552)" d="M714.418 1049.03 L826.123 1049.03 L826.123 1156.97 L714.418 1156.97 L714.418 1049.03  Z" fill="#b3e2cd" fill-rule="evenodd" fill-opacity="1"/>
<polyline clip-path="url(#clip552)" style="stroke:#000000; stroke-linecap:round; stroke-linejoin:round; stroke-width:0; stroke-opacity:1; fill:none" points="714.418,1049.03 826.123,1049.03 826.123,1156.97 714.418,1156.97 714.418,1049.03 "/>
<path clip-path="url(#clip552)" d="M677.183 1192.95 L863.358 1192.95 L863.358 1372.86 L677.183 1372.86 L677.183 1192.95  Z" fill="#b3e2cd" fill-rule="evenodd" fill-opacity="1"/>
<polyline clip-path="url(#clip552)" style="stroke:#000000; stroke-linecap:round; stroke-linejoin:round; stroke-width:4; stroke-opacity:1; fill:none" points="677.183,1192.95 863.358,1192.95 863.358,1372.86 677.183,1372.86 677.183,1192.95 "/>
<path clip-path="url(#clip552)" d="M677.183 1192.95 L863.358 1192.95 L863.358 1372.86 L677.183 1372.86 L677.183 1192.95  Z" fill="#0000ff" fill-rule="evenodd" fill-opacity="1"/>
<polyline clip-path="url(#clip552)" style="stroke:#000000; stroke-linecap:round; stroke-linejoin:round; stroke-width:4; stroke-opacity:1; fill:none" points="677.183,1192.95 863.358,1192.95 863.358,1372.86 677.183,1372.86 677.183,1192.95 "/>
<path clip-path="url(#clip552)" d="M714.418 1228.94 L826.123 1228.94 L826.123 1336.88 L714.418 1336.88 L714.418 1228.94  Z" fill="#b3e2cd" fill-rule="evenodd" fill-opacity="1"/>
<polyline clip-path="url(#clip552)" style="stroke:#000000; stroke-linecap:round; stroke-linejoin:round; stroke-width:0; stroke-opacity:1; fill:none" points="714.418,1228.94 826.123,1228.94 826.123,1336.88 714.418,1336.88 714.418,1228.94 "/>
<path clip-path="url(#clip552)" d="M677.183 1372.86 L863.358 1372.86 L863.358 1552.76 L677.183 1552.76 L677.183 1372.86  Z" fill="#b3e2cd" fill-rule="evenodd" fill-opacity="1"/>
<polyline clip-path="url(#clip552)" style="stroke:#000000; stroke-linecap:round; stroke-linejoin:round; stroke-width:4; stroke-opacity:1; fill:none" points="677.183,1372.86 863.358,1372.86 863.358,1552.76 677.183,1552.76 677.183,1372.86 "/>
<path clip-path="url(#clip552)" d="M863.358 113.552 L1049.53 113.552 L1049.53 293.453 L863.358 293.453 L863.358 113.552  Z" fill="#b3e2cd" fill-rule="evenodd" fill-opacity="1"/>
<polyline clip-path="url(#clip552)" style="stroke:#000000; stroke-linecap:round; stroke-linejoin:round; stroke-width:4; stroke-opacity:1; fill:none" points="863.358,113.552 1049.53,113.552 1049.53,293.453 863.358,293.453 863.358,113.552 "/>
<path clip-path="url(#clip552)" d="M863.358 113.552 L1049.53 113.552 L1049.53 293.453 L863.358 293.453 L863.358 113.552  Z" fill="#0000ff" fill-rule="evenodd" fill-opacity="1"/>
<polyline clip-path="url(#clip552)" style="stroke:#000000; stroke-linecap:round; stroke-linejoin:round; stroke-width:4; stroke-opacity:1; fill:none" points="863.358,113.552 1049.53,113.552 1049.53,293.453 863.358,293.453 863.358,113.552 "/>
<path clip-path="url(#clip552)" d="M900.593 149.532 L1012.3 149.532 L1012.3 257.473 L900.593 257.473 L900.593 149.532  Z" fill="#b3e2cd" fill-rule="evenodd" fill-opacity="1"/>
<polyline clip-path="url(#clip552)" style="stroke:#000000; stroke-linecap:round; stroke-linejoin:round; stroke-width:0; stroke-opacity:1; fill:none" points="900.593,149.532 1012.3,149.532 1012.3,257.473 900.593,257.473 900.593,149.532 "/>
<path clip-path="url(#clip552)" d="M863.358 293.453 L1049.53 293.453 L1049.53 473.353 L863.358 473.353 L863.358 293.453  Z" fill="#b3e2cd" fill-rule="evenodd" fill-opacity="1"/>
<polyline clip-path="url(#clip552)" style="stroke:#000000; stroke-linecap:round; stroke-linejoin:round; stroke-width:4; stroke-opacity:1; fill:none" points="863.358,293.453 1049.53,293.453 1049.53,473.353 863.358,473.353 863.358,293.453 "/>
<path clip-path="url(#clip552)" d="M863.358 293.453 L1049.53 293.453 L1049.53 473.353 L863.358 473.353 L863.358 293.453  Z" fill="#ff0000" fill-rule="evenodd" fill-opacity="1"/>
<polyline clip-path="url(#clip552)" style="stroke:#000000; stroke-linecap:round; stroke-linejoin:round; stroke-width:4; stroke-opacity:1; fill:none" points="863.358,293.453 1049.53,293.453 1049.53,473.353 863.358,473.353 863.358,293.453 "/>
<path clip-path="url(#clip552)" d="M900.593 329.433 L1012.3 329.433 L1012.3 437.373 L900.593 437.373 L900.593 329.433  Z" fill="#b3e2cd" fill-rule="evenodd" fill-opacity="1"/>
<polyline clip-path="url(#clip552)" style="stroke:#000000; stroke-linecap:round; stroke-linejoin:round; stroke-width:0; stroke-opacity:1; fill:none" points="900.593,329.433 1012.3,329.433 1012.3,437.373 900.593,437.373 900.593,329.433 "/>
<path clip-path="url(#clip552)" d="M863.358 473.353 L1049.53 473.353 L1049.53 653.254 L863.358 653.254 L863.358 473.353  Z" fill="#b3e2cd" fill-rule="evenodd" fill-opacity="1"/>
<polyline clip-path="url(#clip552)" style="stroke:#000000; stroke-linecap:round; stroke-linejoin:round; stroke-width:4; stroke-opacity:1; fill:none" points="863.358,473.353 1049.53,473.353 1049.53,653.254 863.358,653.254 863.358,473.353 "/>
<path clip-path="url(#clip552)" d="M863.358 653.254 L1049.53 653.254 L1049.53 833.154 L863.358 833.154 L863.358 653.254  Z" fill="#b3e2cd" fill-rule="evenodd" fill-opacity="1"/>
<polyline clip-path="url(#clip552)" style="stroke:#000000; stroke-linecap:round; stroke-linejoin:round; stroke-width:4; stroke-opacity:1; fill:none" points="863.358,653.254 1049.53,653.254 1049.53,833.154 863.358,833.154 863.358,653.254 "/>
<path clip-path="url(#clip552)" d="M863.358 653.254 L1049.53 653.254 L1049.53 833.154 L863.358 833.154 L863.358 653.254  Z" fill="#0000ff" fill-rule="evenodd" fill-opacity="1"/>
<polyline clip-path="url(#clip552)" style="stroke:#000000; stroke-linecap:round; stroke-linejoin:round; stroke-width:4; stroke-opacity:1; fill:none" points="863.358,653.254 1049.53,653.254 1049.53,833.154 863.358,833.154 863.358,653.254 "/>
<path clip-path="url(#clip552)" d="M900.593 689.234 L1012.3 689.234 L1012.3 797.174 L900.593 797.174 L900.593 689.234  Z" fill="#b3e2cd" fill-rule="evenodd" fill-opacity="1"/>
<polyline clip-path="url(#clip552)" style="stroke:#000000; stroke-linecap:round; stroke-linejoin:round; stroke-width:0; stroke-opacity:1; fill:none" points="900.593,689.234 1012.3,689.234 1012.3,797.174 900.593,797.174 900.593,689.234 "/>
<path clip-path="url(#clip552)" d="M863.358 833.154 L1049.53 833.154 L1049.53 1013.05 L863.358 1013.05 L863.358 833.154  Z" fill="#b3e2cd" fill-rule="evenodd" fill-opacity="1"/>
<polyline clip-path="url(#clip552)" style="stroke:#000000; stroke-linecap:round; stroke-linejoin:round; stroke-width:4; stroke-opacity:1; fill:none" points="863.358,833.154 1049.53,833.154 1049.53,1013.05 863.358,1013.05 863.358,833.154 "/>
<path clip-path="url(#clip552)" d="M863.358 1013.05 L1049.53 1013.05 L1049.53 1192.95 L863.358 1192.95 L863.358 1013.05  Z" fill="#b3e2cd" fill-rule="evenodd" fill-opacity="1"/>
<polyline clip-path="url(#clip552)" style="stroke:#000000; stroke-linecap:round; stroke-linejoin:round; stroke-width:4; stroke-opacity:1; fill:none" points="863.358,1013.05 1049.53,1013.05 1049.53,1192.95 863.358,1192.95 863.358,1013.05 "/>
<path clip-path="url(#clip552)" d="M863.358 1013.05 L1049.53 1013.05 L1049.53 1192.95 L863.358 1192.95 L863.358 1013.05  Z" fill="#ff0000" fill-rule="evenodd" fill-opacity="1"/>
<polyline clip-path="url(#clip552)" style="stroke:#000000; stroke-linecap:round; stroke-linejoin:round; stroke-width:4; stroke-opacity:1; fill:none" points="863.358,1013.05 1049.53,1013.05 1049.53,1192.95 863.358,1192.95 863.358,1013.05 "/>
<path clip-path="url(#clip552)" d="M900.593 1049.03 L1012.3 1049.03 L1012.3 1156.97 L900.593 1156.97 L900.593 1049.03  Z" fill="#b3e2cd" fill-rule="evenodd" fill-opacity="1"/>
<polyline clip-path="url(#clip552)" style="stroke:#000000; stroke-linecap:round; stroke-linejoin:round; stroke-width:0; stroke-opacity:1; fill:none" points="900.593,1049.03 1012.3,1049.03 1012.3,1156.97 900.593,1156.97 900.593,1049.03 "/>
<path clip-path="url(#clip552)" d="M863.358 1192.95 L1049.53 1192.95 L1049.53 1372.86 L863.358 1372.86 L863.358 1192.95  Z" fill="#b3e2cd" fill-rule="evenodd" fill-opacity="1"/>
<polyline clip-path="url(#clip552)" style="stroke:#000000; stroke-linecap:round; stroke-linejoin:round; stroke-width:4; stroke-opacity:1; fill:none" points="863.358,1192.95 1049.53,1192.95 1049.53,1372.86 863.358,1372.86 863.358,1192.95 "/>
<path clip-path="url(#clip552)" d="M863.358 1372.86 L1049.53 1372.86 L1049.53 1552.76 L863.358 1552.76 L863.358 1372.86  Z" fill="#b3e2cd" fill-rule="evenodd" fill-opacity="1"/>
<polyline clip-path="url(#clip552)" style="stroke:#000000; stroke-linecap:round; stroke-linejoin:round; stroke-width:4; stroke-opacity:1; fill:none" points="863.358,1372.86 1049.53,1372.86 1049.53,1552.76 863.358,1552.76 863.358,1372.86 "/>
<path clip-path="url(#clip552)" d="M1049.53 113.552 L1235.71 113.552 L1235.71 293.453 L1049.53 293.453 L1049.53 113.552  Z" fill="#b3e2cd" fill-rule="evenodd" fill-opacity="1"/>
<polyline clip-path="url(#clip552)" style="stroke:#000000; stroke-linecap:round; stroke-linejoin:round; stroke-width:4; stroke-opacity:1; fill:none" points="1049.53,113.552 1235.71,113.552 1235.71,293.453 1049.53,293.453 1049.53,113.552 "/>
<path clip-path="url(#clip552)" d="M1049.53 293.453 L1235.71 293.453 L1235.71 473.353 L1049.53 473.353 L1049.53 293.453  Z" fill="#b3e2cd" fill-rule="evenodd" fill-opacity="1"/>
<polyline clip-path="url(#clip552)" style="stroke:#000000; stroke-linecap:round; stroke-linejoin:round; stroke-width:4; stroke-opacity:1; fill:none" points="1049.53,293.453 1235.71,293.453 1235.71,473.353 1049.53,473.353 1049.53,293.453 "/>
<path clip-path="url(#clip552)" d="M1049.53 293.453 L1235.71 293.453 L1235.71 473.353 L1049.53 473.353 L1049.53 293.453  Z" fill="#ff0000" fill-rule="evenodd" fill-opacity="1"/>
<polyline clip-path="url(#clip552)" style="stroke:#000000; stroke-linecap:round; stroke-linejoin:round; stroke-width:4; stroke-opacity:1; fill:none" points="1049.53,293.453 1235.71,293.453 1235.71,473.353 1049.53,473.353 1049.53,293.453 "/>
<path clip-path="url(#clip552)" d="M1086.77 329.433 L1198.47 329.433 L1198.47 437.373 L1086.77 437.373 L1086.77 329.433  Z" fill="#b3e2cd" fill-rule="evenodd" fill-opacity="1"/>
<polyline clip-path="url(#clip552)" style="stroke:#000000; stroke-linecap:round; stroke-linejoin:round; stroke-width:0; stroke-opacity:1; fill:none" points="1086.77,329.433 1198.47,329.433 1198.47,437.373 1086.77,437.373 1086.77,329.433 "/>
<path clip-path="url(#clip552)" d="M1049.53 473.353 L1235.71 473.353 L1235.71 653.254 L1049.53 653.254 L1049.53 473.353  Z" fill="#b3e2cd" fill-rule="evenodd" fill-opacity="1"/>
<polyline clip-path="url(#clip552)" style="stroke:#000000; stroke-linecap:round; stroke-linejoin:round; stroke-width:4; stroke-opacity:1; fill:none" points="1049.53,473.353 1235.71,473.353 1235.71,653.254 1049.53,653.254 1049.53,473.353 "/>
<path clip-path="url(#clip552)" d="M1049.53 653.254 L1235.71 653.254 L1235.71 833.154 L1049.53 833.154 L1049.53 653.254  Z" fill="#b3e2cd" fill-rule="evenodd" fill-opacity="1"/>
<polyline clip-path="url(#clip552)" style="stroke:#000000; stroke-linecap:round; stroke-linejoin:round; stroke-width:4; stroke-opacity:1; fill:none" points="1049.53,653.254 1235.71,653.254 1235.71,833.154 1049.53,833.154 1049.53,653.254 "/>
<path clip-path="url(#clip552)" d="M1049.53 833.154 L1235.71 833.154 L1235.71 1013.05 L1049.53 1013.05 L1049.53 833.154  Z" fill="#b3e2cd" fill-rule="evenodd" fill-opacity="1"/>
<polyline clip-path="url(#clip552)" style="stroke:#000000; stroke-linecap:round; stroke-linejoin:round; stroke-width:4; stroke-opacity:1; fill:none" points="1049.53,833.154 1235.71,833.154 1235.71,1013.05 1049.53,1013.05 1049.53,833.154 "/>
<path clip-path="url(#clip552)" d="M1049.53 1013.05 L1235.71 1013.05 L1235.71 1192.95 L1049.53 1192.95 L1049.53 1013.05  Z" fill="#b3e2cd" fill-rule="evenodd" fill-opacity="1"/>
<polyline clip-path="url(#clip552)" style="stroke:#000000; stroke-linecap:round; stroke-linejoin:round; stroke-width:4; stroke-opacity:1; fill:none" points="1049.53,1013.05 1235.71,1013.05 1235.71,1192.95 1049.53,1192.95 1049.53,1013.05 "/>
<path clip-path="url(#clip552)" d="M1049.53 1192.95 L1235.71 1192.95 L1235.71 1372.86 L1049.53 1372.86 L1049.53 1192.95  Z" fill="#b3e2cd" fill-rule="evenodd" fill-opacity="1"/>
<polyline clip-path="url(#clip552)" style="stroke:#000000; stroke-linecap:round; stroke-linejoin:round; stroke-width:4; stroke-opacity:1; fill:none" points="1049.53,1192.95 1235.71,1192.95 1235.71,1372.86 1049.53,1372.86 1049.53,1192.95 "/>
<path clip-path="url(#clip552)" d="M1049.53 1372.86 L1235.71 1372.86 L1235.71 1552.76 L1049.53 1552.76 L1049.53 1372.86  Z" fill="#b3e2cd" fill-rule="evenodd" fill-opacity="1"/>
<polyline clip-path="url(#clip552)" style="stroke:#000000; stroke-linecap:round; stroke-linejoin:round; stroke-width:4; stroke-opacity:1; fill:none" points="1049.53,1372.86 1235.71,1372.86 1235.71,1552.76 1049.53,1552.76 1049.53,1372.86 "/>
<path clip-path="url(#clip552)" d="M1049.53 1372.86 L1235.71 1372.86 L1235.71 1552.76 L1049.53 1552.76 L1049.53 1372.86  Z" fill="#0000ff" fill-rule="evenodd" fill-opacity="1"/>
<polyline clip-path="url(#clip552)" style="stroke:#000000; stroke-linecap:round; stroke-linejoin:round; stroke-width:4; stroke-opacity:1; fill:none" points="1049.53,1372.86 1235.71,1372.86 1235.71,1552.76 1049.53,1552.76 1049.53,1372.86 "/>
<path clip-path="url(#clip552)" d="M1086.77 1408.84 L1198.47 1408.84 L1198.47 1516.78 L1086.77 1516.78 L1086.77 1408.84  Z" fill="#b3e2cd" fill-rule="evenodd" fill-opacity="1"/>
<polyline clip-path="url(#clip552)" style="stroke:#000000; stroke-linecap:round; stroke-linejoin:round; stroke-width:0; stroke-opacity:1; fill:none" points="1086.77,1408.84 1198.47,1408.84 1198.47,1516.78 1086.77,1516.78 1086.77,1408.84 "/>
<path clip-path="url(#clip552)" d="M1235.71 113.552 L1421.88 113.552 L1421.88 293.453 L1235.71 293.453 L1235.71 113.552  Z" fill="#b3e2cd" fill-rule="evenodd" fill-opacity="1"/>
<polyline clip-path="url(#clip552)" style="stroke:#000000; stroke-linecap:round; stroke-linejoin:round; stroke-width:4; stroke-opacity:1; fill:none" points="1235.71,113.552 1421.88,113.552 1421.88,293.453 1235.71,293.453 1235.71,113.552 "/>
<path clip-path="url(#clip552)" d="M1235.71 293.453 L1421.88 293.453 L1421.88 473.353 L1235.71 473.353 L1235.71 293.453  Z" fill="#b3e2cd" fill-rule="evenodd" fill-opacity="1"/>
<polyline clip-path="url(#clip552)" style="stroke:#000000; stroke-linecap:round; stroke-linejoin:round; stroke-width:4; stroke-opacity:1; fill:none" points="1235.71,293.453 1421.88,293.453 1421.88,473.353 1235.71,473.353 1235.71,293.453 "/>
<path clip-path="url(#clip552)" d="M1235.71 293.453 L1421.88 293.453 L1421.88 473.353 L1235.71 473.353 L1235.71 293.453  Z" fill="#0000ff" fill-rule="evenodd" fill-opacity="1"/>
<polyline clip-path="url(#clip552)" style="stroke:#000000; stroke-linecap:round; stroke-linejoin:round; stroke-width:4; stroke-opacity:1; fill:none" points="1235.71,293.453 1421.88,293.453 1421.88,473.353 1235.71,473.353 1235.71,293.453 "/>
<path clip-path="url(#clip552)" d="M1272.94 329.433 L1384.65 329.433 L1384.65 437.373 L1272.94 437.373 L1272.94 329.433  Z" fill="#b3e2cd" fill-rule="evenodd" fill-opacity="1"/>
<polyline clip-path="url(#clip552)" style="stroke:#000000; stroke-linecap:round; stroke-linejoin:round; stroke-width:0; stroke-opacity:1; fill:none" points="1272.94,329.433 1384.65,329.433 1384.65,437.373 1272.94,437.373 1272.94,329.433 "/>
<path clip-path="url(#clip552)" d="M1235.71 473.353 L1421.88 473.353 L1421.88 653.254 L1235.71 653.254 L1235.71 473.353  Z" fill="#b3e2cd" fill-rule="evenodd" fill-opacity="1"/>
<polyline clip-path="url(#clip552)" style="stroke:#000000; stroke-linecap:round; stroke-linejoin:round; stroke-width:4; stroke-opacity:1; fill:none" points="1235.71,473.353 1421.88,473.353 1421.88,653.254 1235.71,653.254 1235.71,473.353 "/>
<path clip-path="url(#clip552)" d="M1235.71 653.254 L1421.88 653.254 L1421.88 833.154 L1235.71 833.154 L1235.71 653.254  Z" fill="#b3e2cd" fill-rule="evenodd" fill-opacity="1"/>
<polyline clip-path="url(#clip552)" style="stroke:#000000; stroke-linecap:round; stroke-linejoin:round; stroke-width:4; stroke-opacity:1; fill:none" points="1235.71,653.254 1421.88,653.254 1421.88,833.154 1235.71,833.154 1235.71,653.254 "/>
<path clip-path="url(#clip552)" d="M1235.71 833.154 L1421.88 833.154 L1421.88 1013.05 L1235.71 1013.05 L1235.71 833.154  Z" fill="#b3e2cd" fill-rule="evenodd" fill-opacity="1"/>
<polyline clip-path="url(#clip552)" style="stroke:#000000; stroke-linecap:round; stroke-linejoin:round; stroke-width:4; stroke-opacity:1; fill:none" points="1235.71,833.154 1421.88,833.154 1421.88,1013.05 1235.71,1013.05 1235.71,833.154 "/>
<path clip-path="url(#clip552)" d="M1235.71 833.154 L1421.88 833.154 L1421.88 1013.05 L1235.71 1013.05 L1235.71 833.154  Z" fill="#ff0000" fill-rule="evenodd" fill-opacity="1"/>
<polyline clip-path="url(#clip552)" style="stroke:#000000; stroke-linecap:round; stroke-linejoin:round; stroke-width:4; stroke-opacity:1; fill:none" points="1235.71,833.154 1421.88,833.154 1421.88,1013.05 1235.71,1013.05 1235.71,833.154 "/>
<path clip-path="url(#clip552)" d="M1272.94 869.134 L1384.65 869.134 L1384.65 977.074 L1272.94 977.074 L1272.94 869.134  Z" fill="#b3e2cd" fill-rule="evenodd" fill-opacity="1"/>
<polyline clip-path="url(#clip552)" style="stroke:#000000; stroke-linecap:round; stroke-linejoin:round; stroke-width:0; stroke-opacity:1; fill:none" points="1272.94,869.134 1384.65,869.134 1384.65,977.074 1272.94,977.074 1272.94,869.134 "/>
<path clip-path="url(#clip552)" d="M1235.71 1013.05 L1421.88 1013.05 L1421.88 1192.95 L1235.71 1192.95 L1235.71 1013.05  Z" fill="#b3e2cd" fill-rule="evenodd" fill-opacity="1"/>
<polyline clip-path="url(#clip552)" style="stroke:#000000; stroke-linecap:round; stroke-linejoin:round; stroke-width:4; stroke-opacity:1; fill:none" points="1235.71,1013.05 1421.88,1013.05 1421.88,1192.95 1235.71,1192.95 1235.71,1013.05 "/>
<path clip-path="url(#clip552)" d="M1235.71 1013.05 L1421.88 1013.05 L1421.88 1192.95 L1235.71 1192.95 L1235.71 1013.05  Z" fill="#0000ff" fill-rule="evenodd" fill-opacity="1"/>
<polyline clip-path="url(#clip552)" style="stroke:#000000; stroke-linecap:round; stroke-linejoin:round; stroke-width:4; stroke-opacity:1; fill:none" points="1235.71,1013.05 1421.88,1013.05 1421.88,1192.95 1235.71,1192.95 1235.71,1013.05 "/>
<path clip-path="url(#clip552)" d="M1272.94 1049.03 L1384.65 1049.03 L1384.65 1156.97 L1272.94 1156.97 L1272.94 1049.03  Z" fill="#b3e2cd" fill-rule="evenodd" fill-opacity="1"/>
<polyline clip-path="url(#clip552)" style="stroke:#000000; stroke-linecap:round; stroke-linejoin:round; stroke-width:0; stroke-opacity:1; fill:none" points="1272.94,1049.03 1384.65,1049.03 1384.65,1156.97 1272.94,1156.97 1272.94,1049.03 "/>
<path clip-path="url(#clip552)" d="M1235.71 1192.95 L1421.88 1192.95 L1421.88 1372.86 L1235.71 1372.86 L1235.71 1192.95  Z" fill="#b3e2cd" fill-rule="evenodd" fill-opacity="1"/>
<polyline clip-path="url(#clip552)" style="stroke:#000000; stroke-linecap:round; stroke-linejoin:round; stroke-width:4; stroke-opacity:1; fill:none" points="1235.71,1192.95 1421.88,1192.95 1421.88,1372.86 1235.71,1372.86 1235.71,1192.95 "/>
<path clip-path="url(#clip552)" d="M1235.71 1372.86 L1421.88 1372.86 L1421.88 1552.76 L1235.71 1552.76 L1235.71 1372.86  Z" fill="#b3e2cd" fill-rule="evenodd" fill-opacity="1"/>
<polyline clip-path="url(#clip552)" style="stroke:#000000; stroke-linecap:round; stroke-linejoin:round; stroke-width:4; stroke-opacity:1; fill:none" points="1235.71,1372.86 1421.88,1372.86 1421.88,1552.76 1235.71,1552.76 1235.71,1372.86 "/>
<path clip-path="url(#clip552)" d="M1235.71 1372.86 L1421.88 1372.86 L1421.88 1552.76 L1235.71 1552.76 L1235.71 1372.86  Z" fill="#ff0000" fill-rule="evenodd" fill-opacity="1"/>
<polyline clip-path="url(#clip552)" style="stroke:#000000; stroke-linecap:round; stroke-linejoin:round; stroke-width:4; stroke-opacity:1; fill:none" points="1235.71,1372.86 1421.88,1372.86 1421.88,1552.76 1235.71,1552.76 1235.71,1372.86 "/>
<path clip-path="url(#clip552)" d="M1272.94 1408.84 L1384.65 1408.84 L1384.65 1516.78 L1272.94 1516.78 L1272.94 1408.84  Z" fill="#b3e2cd" fill-rule="evenodd" fill-opacity="1"/>
<polyline clip-path="url(#clip552)" style="stroke:#000000; stroke-linecap:round; stroke-linejoin:round; stroke-width:0; stroke-opacity:1; fill:none" points="1272.94,1408.84 1384.65,1408.84 1384.65,1516.78 1272.94,1516.78 1272.94,1408.84 "/>
<path clip-path="url(#clip552)" d="M1421.88 113.552 L1608.06 113.552 L1608.06 293.453 L1421.88 293.453 L1421.88 113.552  Z" fill="#b3e2cd" fill-rule="evenodd" fill-opacity="1"/>
<polyline clip-path="url(#clip552)" style="stroke:#000000; stroke-linecap:round; stroke-linejoin:round; stroke-width:4; stroke-opacity:1; fill:none" points="1421.88,113.552 1608.06,113.552 1608.06,293.453 1421.88,293.453 1421.88,113.552 "/>
<path clip-path="url(#clip552)" d="M1421.88 293.453 L1608.06 293.453 L1608.06 473.353 L1421.88 473.353 L1421.88 293.453  Z" fill="#b3e2cd" fill-rule="evenodd" fill-opacity="1"/>
<polyline clip-path="url(#clip552)" style="stroke:#000000; stroke-linecap:round; stroke-linejoin:round; stroke-width:4; stroke-opacity:1; fill:none" points="1421.88,293.453 1608.06,293.453 1608.06,473.353 1421.88,473.353 1421.88,293.453 "/>
<path clip-path="url(#clip552)" d="M1421.88 473.353 L1608.06 473.353 L1608.06 653.254 L1421.88 653.254 L1421.88 473.353  Z" fill="#b3e2cd" fill-rule="evenodd" fill-opacity="1"/>
<polyline clip-path="url(#clip552)" style="stroke:#000000; stroke-linecap:round; stroke-linejoin:round; stroke-width:4; stroke-opacity:1; fill:none" points="1421.88,473.353 1608.06,473.353 1608.06,653.254 1421.88,653.254 1421.88,473.353 "/>
<path clip-path="url(#clip552)" d="M1421.88 473.353 L1608.06 473.353 L1608.06 653.254 L1421.88 653.254 L1421.88 473.353  Z" fill="#0000ff" fill-rule="evenodd" fill-opacity="1"/>
<polyline clip-path="url(#clip552)" style="stroke:#000000; stroke-linecap:round; stroke-linejoin:round; stroke-width:4; stroke-opacity:1; fill:none" points="1421.88,473.353 1608.06,473.353 1608.06,653.254 1421.88,653.254 1421.88,473.353 "/>
<path clip-path="url(#clip552)" d="M1459.12 509.333 L1570.82 509.333 L1570.82 617.273 L1459.12 617.273 L1459.12 509.333  Z" fill="#b3e2cd" fill-rule="evenodd" fill-opacity="1"/>
<polyline clip-path="url(#clip552)" style="stroke:#000000; stroke-linecap:round; stroke-linejoin:round; stroke-width:0; stroke-opacity:1; fill:none" points="1459.12,509.333 1570.82,509.333 1570.82,617.273 1459.12,617.273 1459.12,509.333 "/>
<path clip-path="url(#clip552)" d="M1421.88 653.254 L1608.06 653.254 L1608.06 833.154 L1421.88 833.154 L1421.88 653.254  Z" fill="#b3e2cd" fill-rule="evenodd" fill-opacity="1"/>
<polyline clip-path="url(#clip552)" style="stroke:#000000; stroke-linecap:round; stroke-linejoin:round; stroke-width:4; stroke-opacity:1; fill:none" points="1421.88,653.254 1608.06,653.254 1608.06,833.154 1421.88,833.154 1421.88,653.254 "/>
<path clip-path="url(#clip552)" d="M1421.88 653.254 L1608.06 653.254 L1608.06 833.154 L1421.88 833.154 L1421.88 653.254  Z" fill="#ff0000" fill-rule="evenodd" fill-opacity="1"/>
<polyline clip-path="url(#clip552)" style="stroke:#000000; stroke-linecap:round; stroke-linejoin:round; stroke-width:4; stroke-opacity:1; fill:none" points="1421.88,653.254 1608.06,653.254 1608.06,833.154 1421.88,833.154 1421.88,653.254 "/>
<path clip-path="url(#clip552)" d="M1459.12 689.234 L1570.82 689.234 L1570.82 797.174 L1459.12 797.174 L1459.12 689.234  Z" fill="#b3e2cd" fill-rule="evenodd" fill-opacity="1"/>
<polyline clip-path="url(#clip552)" style="stroke:#000000; stroke-linecap:round; stroke-linejoin:round; stroke-width:0; stroke-opacity:1; fill:none" points="1459.12,689.234 1570.82,689.234 1570.82,797.174 1459.12,797.174 1459.12,689.234 "/>
<path clip-path="url(#clip552)" d="M1421.88 833.154 L1608.06 833.154 L1608.06 1013.05 L1421.88 1013.05 L1421.88 833.154  Z" fill="#fdcdac" fill-rule="evenodd" fill-opacity="1"/>
<polyline clip-path="url(#clip552)" style="stroke:#000000; stroke-linecap:round; stroke-linejoin:round; stroke-width:4; stroke-opacity:1; fill:none" points="1421.88,833.154 1608.06,833.154 1608.06,1013.05 1421.88,1013.05 1421.88,833.154 "/>
<path clip-path="url(#clip552)" d="M1421.88 1013.05 L1608.06 1013.05 L1608.06 1192.95 L1421.88 1192.95 L1421.88 1013.05  Z" fill="#fdcdac" fill-rule="evenodd" fill-opacity="1"/>
<polyline clip-path="url(#clip552)" style="stroke:#000000; stroke-linecap:round; stroke-linejoin:round; stroke-width:4; stroke-opacity:1; fill:none" points="1421.88,1013.05 1608.06,1013.05 1608.06,1192.95 1421.88,1192.95 1421.88,1013.05 "/>
<path clip-path="url(#clip552)" d="M1421.88 1192.95 L1608.06 1192.95 L1608.06 1372.86 L1421.88 1372.86 L1421.88 1192.95  Z" fill="#fdcdac" fill-rule="evenodd" fill-opacity="1"/>
<polyline clip-path="url(#clip552)" style="stroke:#000000; stroke-linecap:round; stroke-linejoin:round; stroke-width:4; stroke-opacity:1; fill:none" points="1421.88,1192.95 1608.06,1192.95 1608.06,1372.86 1421.88,1372.86 1421.88,1192.95 "/>
<path clip-path="url(#clip552)" d="M1421.88 1192.95 L1608.06 1192.95 L1608.06 1372.86 L1421.88 1372.86 L1421.88 1192.95  Z" fill="#0000ff" fill-rule="evenodd" fill-opacity="1"/>
<polyline clip-path="url(#clip552)" style="stroke:#000000; stroke-linecap:round; stroke-linejoin:round; stroke-width:4; stroke-opacity:1; fill:none" points="1421.88,1192.95 1608.06,1192.95 1608.06,1372.86 1421.88,1372.86 1421.88,1192.95 "/>
<path clip-path="url(#clip552)" d="M1459.12 1228.94 L1570.82 1228.94 L1570.82 1336.88 L1459.12 1336.88 L1459.12 1228.94  Z" fill="#fdcdac" fill-rule="evenodd" fill-opacity="1"/>
<polyline clip-path="url(#clip552)" style="stroke:#000000; stroke-linecap:round; stroke-linejoin:round; stroke-width:0; stroke-opacity:1; fill:none" points="1459.12,1228.94 1570.82,1228.94 1570.82,1336.88 1459.12,1336.88 1459.12,1228.94 "/>
<path clip-path="url(#clip552)" d="M1421.88 1372.86 L1608.06 1372.86 L1608.06 1552.76 L1421.88 1552.76 L1421.88 1372.86  Z" fill="#fdcdac" fill-rule="evenodd" fill-opacity="1"/>
<polyline clip-path="url(#clip552)" style="stroke:#000000; stroke-linecap:round; stroke-linejoin:round; stroke-width:4; stroke-opacity:1; fill:none" points="1421.88,1372.86 1608.06,1372.86 1608.06,1552.76 1421.88,1552.76 1421.88,1372.86 "/>
<path clip-path="url(#clip552)" d="M1421.88 1372.86 L1608.06 1372.86 L1608.06 1552.76 L1421.88 1552.76 L1421.88 1372.86  Z" fill="#ff0000" fill-rule="evenodd" fill-opacity="1"/>
<polyline clip-path="url(#clip552)" style="stroke:#000000; stroke-linecap:round; stroke-linejoin:round; stroke-width:4; stroke-opacity:1; fill:none" points="1421.88,1372.86 1608.06,1372.86 1608.06,1552.76 1421.88,1552.76 1421.88,1372.86 "/>
<path clip-path="url(#clip552)" d="M1459.12 1408.84 L1570.82 1408.84 L1570.82 1516.78 L1459.12 1516.78 L1459.12 1408.84  Z" fill="#fdcdac" fill-rule="evenodd" fill-opacity="1"/>
<polyline clip-path="url(#clip552)" style="stroke:#000000; stroke-linecap:round; stroke-linejoin:round; stroke-width:0; stroke-opacity:1; fill:none" points="1459.12,1408.84 1570.82,1408.84 1570.82,1516.78 1459.12,1516.78 1459.12,1408.84 "/>
<path clip-path="url(#clip552)" d="M1608.06 113.552 L1794.23 113.552 L1794.23 293.453 L1608.06 293.453 L1608.06 113.552  Z" fill="#fdcdac" fill-rule="evenodd" fill-opacity="1"/>
<polyline clip-path="url(#clip552)" style="stroke:#000000; stroke-linecap:round; stroke-linejoin:round; stroke-width:4; stroke-opacity:1; fill:none" points="1608.06,113.552 1794.23,113.552 1794.23,293.453 1608.06,293.453 1608.06,113.552 "/>
<path clip-path="url(#clip552)" d="M1608.06 293.453 L1794.23 293.453 L1794.23 473.353 L1608.06 473.353 L1608.06 293.453  Z" fill="#fdcdac" fill-rule="evenodd" fill-opacity="1"/>
<polyline clip-path="url(#clip552)" style="stroke:#000000; stroke-linecap:round; stroke-linejoin:round; stroke-width:4; stroke-opacity:1; fill:none" points="1608.06,293.453 1794.23,293.453 1794.23,473.353 1608.06,473.353 1608.06,293.453 "/>
<path clip-path="url(#clip552)" d="M1608.06 473.353 L1794.23 473.353 L1794.23 653.254 L1608.06 653.254 L1608.06 473.353  Z" fill="#fdcdac" fill-rule="evenodd" fill-opacity="1"/>
<polyline clip-path="url(#clip552)" style="stroke:#000000; stroke-linecap:round; stroke-linejoin:round; stroke-width:4; stroke-opacity:1; fill:none" points="1608.06,473.353 1794.23,473.353 1794.23,653.254 1608.06,653.254 1608.06,473.353 "/>
<path clip-path="url(#clip552)" d="M1608.06 653.254 L1794.23 653.254 L1794.23 833.154 L1608.06 833.154 L1608.06 653.254  Z" fill="#fdcdac" fill-rule="evenodd" fill-opacity="1"/>
<polyline clip-path="url(#clip552)" style="stroke:#000000; stroke-linecap:round; stroke-linejoin:round; stroke-width:4; stroke-opacity:1; fill:none" points="1608.06,653.254 1794.23,653.254 1794.23,833.154 1608.06,833.154 1608.06,653.254 "/>
<path clip-path="url(#clip552)" d="M1608.06 833.154 L1794.23 833.154 L1794.23 1013.05 L1608.06 1013.05 L1608.06 833.154  Z" fill="#fdcdac" fill-rule="evenodd" fill-opacity="1"/>
<polyline clip-path="url(#clip552)" style="stroke:#000000; stroke-linecap:round; stroke-linejoin:round; stroke-width:4; stroke-opacity:1; fill:none" points="1608.06,833.154 1794.23,833.154 1794.23,1013.05 1608.06,1013.05 1608.06,833.154 "/>
<path clip-path="url(#clip552)" d="M1608.06 833.154 L1794.23 833.154 L1794.23 1013.05 L1608.06 1013.05 L1608.06 833.154  Z" fill="#ff0000" fill-rule="evenodd" fill-opacity="1"/>
<polyline clip-path="url(#clip552)" style="stroke:#000000; stroke-linecap:round; stroke-linejoin:round; stroke-width:4; stroke-opacity:1; fill:none" points="1608.06,833.154 1794.23,833.154 1794.23,1013.05 1608.06,1013.05 1608.06,833.154 "/>
<path clip-path="url(#clip552)" d="M1645.29 869.134 L1757 869.134 L1757 977.074 L1645.29 977.074 L1645.29 869.134  Z" fill="#fdcdac" fill-rule="evenodd" fill-opacity="1"/>
<polyline clip-path="url(#clip552)" style="stroke:#000000; stroke-linecap:round; stroke-linejoin:round; stroke-width:0; stroke-opacity:1; fill:none" points="1645.29,869.134 1757,869.134 1757,977.074 1645.29,977.074 1645.29,869.134 "/>
<path clip-path="url(#clip552)" d="M1608.06 1013.05 L1794.23 1013.05 L1794.23 1192.95 L1608.06 1192.95 L1608.06 1013.05  Z" fill="#fdcdac" fill-rule="evenodd" fill-opacity="1"/>
<polyline clip-path="url(#clip552)" style="stroke:#000000; stroke-linecap:round; stroke-linejoin:round; stroke-width:4; stroke-opacity:1; fill:none" points="1608.06,1013.05 1794.23,1013.05 1794.23,1192.95 1608.06,1192.95 1608.06,1013.05 "/>
<path clip-path="url(#clip552)" d="M1608.06 1192.95 L1794.23 1192.95 L1794.23 1372.86 L1608.06 1372.86 L1608.06 1192.95  Z" fill="#fdcdac" fill-rule="evenodd" fill-opacity="1"/>
<polyline clip-path="url(#clip552)" style="stroke:#000000; stroke-linecap:round; stroke-linejoin:round; stroke-width:4; stroke-opacity:1; fill:none" points="1608.06,1192.95 1794.23,1192.95 1794.23,1372.86 1608.06,1372.86 1608.06,1192.95 "/>
<path clip-path="url(#clip552)" d="M1608.06 1372.86 L1794.23 1372.86 L1794.23 1552.76 L1608.06 1552.76 L1608.06 1372.86  Z" fill="#fdcdac" fill-rule="evenodd" fill-opacity="1"/>
<polyline clip-path="url(#clip552)" style="stroke:#000000; stroke-linecap:round; stroke-linejoin:round; stroke-width:4; stroke-opacity:1; fill:none" points="1608.06,1372.86 1794.23,1372.86 1794.23,1552.76 1608.06,1552.76 1608.06,1372.86 "/>
<path clip-path="url(#clip552)" d="M1608.06 1372.86 L1794.23 1372.86 L1794.23 1552.76 L1608.06 1552.76 L1608.06 1372.86  Z" fill="#0000ff" fill-rule="evenodd" fill-opacity="1"/>
<polyline clip-path="url(#clip552)" style="stroke:#000000; stroke-linecap:round; stroke-linejoin:round; stroke-width:4; stroke-opacity:1; fill:none" points="1608.06,1372.86 1794.23,1372.86 1794.23,1552.76 1608.06,1552.76 1608.06,1372.86 "/>
<path clip-path="url(#clip552)" d="M1645.29 1408.84 L1757 1408.84 L1757 1516.78 L1645.29 1516.78 L1645.29 1408.84  Z" fill="#fdcdac" fill-rule="evenodd" fill-opacity="1"/>
<polyline clip-path="url(#clip552)" style="stroke:#000000; stroke-linecap:round; stroke-linejoin:round; stroke-width:0; stroke-opacity:1; fill:none" points="1645.29,1408.84 1757,1408.84 1757,1516.78 1645.29,1516.78 1645.29,1408.84 "/>
<path clip-path="url(#clip552)" d="M1794.23 113.552 L1980.41 113.552 L1980.41 293.453 L1794.23 293.453 L1794.23 113.552  Z" fill="#fdcdac" fill-rule="evenodd" fill-opacity="1"/>
<polyline clip-path="url(#clip552)" style="stroke:#000000; stroke-linecap:round; stroke-linejoin:round; stroke-width:4; stroke-opacity:1; fill:none" points="1794.23,113.552 1980.41,113.552 1980.41,293.453 1794.23,293.453 1794.23,113.552 "/>
<path clip-path="url(#clip552)" d="M1794.23 293.453 L1980.41 293.453 L1980.41 473.353 L1794.23 473.353 L1794.23 293.453  Z" fill="#fdcdac" fill-rule="evenodd" fill-opacity="1"/>
<polyline clip-path="url(#clip552)" style="stroke:#000000; stroke-linecap:round; stroke-linejoin:round; stroke-width:4; stroke-opacity:1; fill:none" points="1794.23,293.453 1980.41,293.453 1980.41,473.353 1794.23,473.353 1794.23,293.453 "/>
<path clip-path="url(#clip552)" d="M1794.23 293.453 L1980.41 293.453 L1980.41 473.353 L1794.23 473.353 L1794.23 293.453  Z" fill="#0000ff" fill-rule="evenodd" fill-opacity="1"/>
<polyline clip-path="url(#clip552)" style="stroke:#000000; stroke-linecap:round; stroke-linejoin:round; stroke-width:4; stroke-opacity:1; fill:none" points="1794.23,293.453 1980.41,293.453 1980.41,473.353 1794.23,473.353 1794.23,293.453 "/>
<path clip-path="url(#clip552)" d="M1831.47 329.433 L1943.17 329.433 L1943.17 437.373 L1831.47 437.373 L1831.47 329.433  Z" fill="#fdcdac" fill-rule="evenodd" fill-opacity="1"/>
<polyline clip-path="url(#clip552)" style="stroke:#000000; stroke-linecap:round; stroke-linejoin:round; stroke-width:0; stroke-opacity:1; fill:none" points="1831.47,329.433 1943.17,329.433 1943.17,437.373 1831.47,437.373 1831.47,329.433 "/>
<path clip-path="url(#clip552)" d="M1794.23 473.353 L1980.41 473.353 L1980.41 653.254 L1794.23 653.254 L1794.23 473.353  Z" fill="#fdcdac" fill-rule="evenodd" fill-opacity="1"/>
<polyline clip-path="url(#clip552)" style="stroke:#000000; stroke-linecap:round; stroke-linejoin:round; stroke-width:4; stroke-opacity:1; fill:none" points="1794.23,473.353 1980.41,473.353 1980.41,653.254 1794.23,653.254 1794.23,473.353 "/>
<path clip-path="url(#clip552)" d="M1794.23 473.353 L1980.41 473.353 L1980.41 653.254 L1794.23 653.254 L1794.23 473.353  Z" fill="#ff0000" fill-rule="evenodd" fill-opacity="1"/>
<polyline clip-path="url(#clip552)" style="stroke:#000000; stroke-linecap:round; stroke-linejoin:round; stroke-width:4; stroke-opacity:1; fill:none" points="1794.23,473.353 1980.41,473.353 1980.41,653.254 1794.23,653.254 1794.23,473.353 "/>
<path clip-path="url(#clip552)" d="M1831.47 509.333 L1943.17 509.333 L1943.17 617.273 L1831.47 617.273 L1831.47 509.333  Z" fill="#fdcdac" fill-rule="evenodd" fill-opacity="1"/>
<polyline clip-path="url(#clip552)" style="stroke:#000000; stroke-linecap:round; stroke-linejoin:round; stroke-width:0; stroke-opacity:1; fill:none" points="1831.47,509.333 1943.17,509.333 1943.17,617.273 1831.47,617.273 1831.47,509.333 "/>
<path clip-path="url(#clip552)" d="M1794.23 653.254 L1980.41 653.254 L1980.41 833.154 L1794.23 833.154 L1794.23 653.254  Z" fill="#fdcdac" fill-rule="evenodd" fill-opacity="1"/>
<polyline clip-path="url(#clip552)" style="stroke:#000000; stroke-linecap:round; stroke-linejoin:round; stroke-width:4; stroke-opacity:1; fill:none" points="1794.23,653.254 1980.41,653.254 1980.41,833.154 1794.23,833.154 1794.23,653.254 "/>
<path clip-path="url(#clip552)" d="M1794.23 833.154 L1980.41 833.154 L1980.41 1013.05 L1794.23 1013.05 L1794.23 833.154  Z" fill="#fdcdac" fill-rule="evenodd" fill-opacity="1"/>
<polyline clip-path="url(#clip552)" style="stroke:#000000; stroke-linecap:round; stroke-linejoin:round; stroke-width:4; stroke-opacity:1; fill:none" points="1794.23,833.154 1980.41,833.154 1980.41,1013.05 1794.23,1013.05 1794.23,833.154 "/>
<path clip-path="url(#clip552)" d="M1794.23 1013.05 L1980.41 1013.05 L1980.41 1192.95 L1794.23 1192.95 L1794.23 1013.05  Z" fill="#fdcdac" fill-rule="evenodd" fill-opacity="1"/>
<polyline clip-path="url(#clip552)" style="stroke:#000000; stroke-linecap:round; stroke-linejoin:round; stroke-width:4; stroke-opacity:1; fill:none" points="1794.23,1013.05 1980.41,1013.05 1980.41,1192.95 1794.23,1192.95 1794.23,1013.05 "/>
<path clip-path="url(#clip552)" d="M1794.23 1013.05 L1980.41 1013.05 L1980.41 1192.95 L1794.23 1192.95 L1794.23 1013.05  Z" fill="#0000ff" fill-rule="evenodd" fill-opacity="1"/>
<polyline clip-path="url(#clip552)" style="stroke:#000000; stroke-linecap:round; stroke-linejoin:round; stroke-width:4; stroke-opacity:1; fill:none" points="1794.23,1013.05 1980.41,1013.05 1980.41,1192.95 1794.23,1192.95 1794.23,1013.05 "/>
<path clip-path="url(#clip552)" d="M1831.47 1049.03 L1943.17 1049.03 L1943.17 1156.97 L1831.47 1156.97 L1831.47 1049.03  Z" fill="#fdcdac" fill-rule="evenodd" fill-opacity="1"/>
<polyline clip-path="url(#clip552)" style="stroke:#000000; stroke-linecap:round; stroke-linejoin:round; stroke-width:0; stroke-opacity:1; fill:none" points="1831.47,1049.03 1943.17,1049.03 1943.17,1156.97 1831.47,1156.97 1831.47,1049.03 "/>
<path clip-path="url(#clip552)" d="M1794.23 1192.95 L1980.41 1192.95 L1980.41 1372.86 L1794.23 1372.86 L1794.23 1192.95  Z" fill="#fdcdac" fill-rule="evenodd" fill-opacity="1"/>
<polyline clip-path="url(#clip552)" style="stroke:#000000; stroke-linecap:round; stroke-linejoin:round; stroke-width:4; stroke-opacity:1; fill:none" points="1794.23,1192.95 1980.41,1192.95 1980.41,1372.86 1794.23,1372.86 1794.23,1192.95 "/>
<path clip-path="url(#clip552)" d="M1794.23 1372.86 L1980.41 1372.86 L1980.41 1552.76 L1794.23 1552.76 L1794.23 1372.86  Z" fill="#fdcdac" fill-rule="evenodd" fill-opacity="1"/>
<polyline clip-path="url(#clip552)" style="stroke:#000000; stroke-linecap:round; stroke-linejoin:round; stroke-width:4; stroke-opacity:1; fill:none" points="1794.23,1372.86 1980.41,1372.86 1980.41,1552.76 1794.23,1552.76 1794.23,1372.86 "/>
<path clip-path="url(#clip552)" d="M1980.41 113.552 L2166.58 113.552 L2166.58 293.453 L1980.41 293.453 L1980.41 113.552  Z" fill="#fdcdac" fill-rule="evenodd" fill-opacity="1"/>
<polyline clip-path="url(#clip552)" style="stroke:#000000; stroke-linecap:round; stroke-linejoin:round; stroke-width:4; stroke-opacity:1; fill:none" points="1980.41,113.552 2166.58,113.552 2166.58,293.453 1980.41,293.453 1980.41,113.552 "/>
<path clip-path="url(#clip552)" d="M1980.41 293.453 L2166.58 293.453 L2166.58 473.353 L1980.41 473.353 L1980.41 293.453  Z" fill="#fdcdac" fill-rule="evenodd" fill-opacity="1"/>
<polyline clip-path="url(#clip552)" style="stroke:#000000; stroke-linecap:round; stroke-linejoin:round; stroke-width:4; stroke-opacity:1; fill:none" points="1980.41,293.453 2166.58,293.453 2166.58,473.353 1980.41,473.353 1980.41,293.453 "/>
<path clip-path="url(#clip552)" d="M1980.41 473.353 L2166.58 473.353 L2166.58 653.254 L1980.41 653.254 L1980.41 473.353  Z" fill="#fdcdac" fill-rule="evenodd" fill-opacity="1"/>
<polyline clip-path="url(#clip552)" style="stroke:#000000; stroke-linecap:round; stroke-linejoin:round; stroke-width:4; stroke-opacity:1; fill:none" points="1980.41,473.353 2166.58,473.353 2166.58,653.254 1980.41,653.254 1980.41,473.353 "/>
<path clip-path="url(#clip552)" d="M1980.41 653.254 L2166.58 653.254 L2166.58 833.154 L1980.41 833.154 L1980.41 653.254  Z" fill="#fdcdac" fill-rule="evenodd" fill-opacity="1"/>
<polyline clip-path="url(#clip552)" style="stroke:#000000; stroke-linecap:round; stroke-linejoin:round; stroke-width:4; stroke-opacity:1; fill:none" points="1980.41,653.254 2166.58,653.254 2166.58,833.154 1980.41,833.154 1980.41,653.254 "/>
<path clip-path="url(#clip552)" d="M1980.41 653.254 L2166.58 653.254 L2166.58 833.154 L1980.41 833.154 L1980.41 653.254  Z" fill="#0000ff" fill-rule="evenodd" fill-opacity="1"/>
<polyline clip-path="url(#clip552)" style="stroke:#000000; stroke-linecap:round; stroke-linejoin:round; stroke-width:4; stroke-opacity:1; fill:none" points="1980.41,653.254 2166.58,653.254 2166.58,833.154 1980.41,833.154 1980.41,653.254 "/>
<path clip-path="url(#clip552)" d="M2017.64 689.234 L2129.35 689.234 L2129.35 797.174 L2017.64 797.174 L2017.64 689.234  Z" fill="#fdcdac" fill-rule="evenodd" fill-opacity="1"/>
<polyline clip-path="url(#clip552)" style="stroke:#000000; stroke-linecap:round; stroke-linejoin:round; stroke-width:0; stroke-opacity:1; fill:none" points="2017.64,689.234 2129.35,689.234 2129.35,797.174 2017.64,797.174 2017.64,689.234 "/>
<path clip-path="url(#clip552)" d="M1980.41 833.154 L2166.58 833.154 L2166.58 1013.05 L1980.41 1013.05 L1980.41 833.154  Z" fill="#fdcdac" fill-rule="evenodd" fill-opacity="1"/>
<polyline clip-path="url(#clip552)" style="stroke:#000000; stroke-linecap:round; stroke-linejoin:round; stroke-width:4; stroke-opacity:1; fill:none" points="1980.41,833.154 2166.58,833.154 2166.58,1013.05 1980.41,1013.05 1980.41,833.154 "/>
<path clip-path="url(#clip552)" d="M1980.41 1013.05 L2166.58 1013.05 L2166.58 1192.95 L1980.41 1192.95 L1980.41 1013.05  Z" fill="#fdcdac" fill-rule="evenodd" fill-opacity="1"/>
<polyline clip-path="url(#clip552)" style="stroke:#000000; stroke-linecap:round; stroke-linejoin:round; stroke-width:4; stroke-opacity:1; fill:none" points="1980.41,1013.05 2166.58,1013.05 2166.58,1192.95 1980.41,1192.95 1980.41,1013.05 "/>
<path clip-path="url(#clip552)" d="M1980.41 1013.05 L2166.58 1013.05 L2166.58 1192.95 L1980.41 1192.95 L1980.41 1013.05  Z" fill="#ff0000" fill-rule="evenodd" fill-opacity="1"/>
<polyline clip-path="url(#clip552)" style="stroke:#000000; stroke-linecap:round; stroke-linejoin:round; stroke-width:4; stroke-opacity:1; fill:none" points="1980.41,1013.05 2166.58,1013.05 2166.58,1192.95 1980.41,1192.95 1980.41,1013.05 "/>
<path clip-path="url(#clip552)" d="M2017.64 1049.03 L2129.35 1049.03 L2129.35 1156.97 L2017.64 1156.97 L2017.64 1049.03  Z" fill="#fdcdac" fill-rule="evenodd" fill-opacity="1"/>
<polyline clip-path="url(#clip552)" style="stroke:#000000; stroke-linecap:round; stroke-linejoin:round; stroke-width:0; stroke-opacity:1; fill:none" points="2017.64,1049.03 2129.35,1049.03 2129.35,1156.97 2017.64,1156.97 2017.64,1049.03 "/>
<path clip-path="url(#clip552)" d="M1980.41 1192.95 L2166.58 1192.95 L2166.58 1372.86 L1980.41 1372.86 L1980.41 1192.95  Z" fill="#fdcdac" fill-rule="evenodd" fill-opacity="1"/>
<polyline clip-path="url(#clip552)" style="stroke:#000000; stroke-linecap:round; stroke-linejoin:round; stroke-width:4; stroke-opacity:1; fill:none" points="1980.41,1192.95 2166.58,1192.95 2166.58,1372.86 1980.41,1372.86 1980.41,1192.95 "/>
<path clip-path="url(#clip552)" d="M1980.41 1192.95 L2166.58 1192.95 L2166.58 1372.86 L1980.41 1372.86 L1980.41 1192.95  Z" fill="#ff0000" fill-rule="evenodd" fill-opacity="1"/>
<polyline clip-path="url(#clip552)" style="stroke:#000000; stroke-linecap:round; stroke-linejoin:round; stroke-width:4; stroke-opacity:1; fill:none" points="1980.41,1192.95 2166.58,1192.95 2166.58,1372.86 1980.41,1372.86 1980.41,1192.95 "/>
<path clip-path="url(#clip552)" d="M2017.64 1228.94 L2129.35 1228.94 L2129.35 1336.88 L2017.64 1336.88 L2017.64 1228.94  Z" fill="#fdcdac" fill-rule="evenodd" fill-opacity="1"/>
<polyline clip-path="url(#clip552)" style="stroke:#000000; stroke-linecap:round; stroke-linejoin:round; stroke-width:0; stroke-opacity:1; fill:none" points="2017.64,1228.94 2129.35,1228.94 2129.35,1336.88 2017.64,1336.88 2017.64,1228.94 "/>
<path clip-path="url(#clip552)" d="M1980.41 1372.86 L2166.58 1372.86 L2166.58 1552.76 L1980.41 1552.76 L1980.41 1372.86  Z" fill="#fdcdac" fill-rule="evenodd" fill-opacity="1"/>
<polyline clip-path="url(#clip552)" style="stroke:#000000; stroke-linecap:round; stroke-linejoin:round; stroke-width:4; stroke-opacity:1; fill:none" points="1980.41,1372.86 2166.58,1372.86 2166.58,1552.76 1980.41,1552.76 1980.41,1372.86 "/>
<path clip-path="url(#clip552)" d="M2166.58 113.552 L2352.76 113.552 L2352.76 293.453 L2166.58 293.453 L2166.58 113.552  Z" fill="#fdcdac" fill-rule="evenodd" fill-opacity="1"/>
<polyline clip-path="url(#clip552)" style="stroke:#000000; stroke-linecap:round; stroke-linejoin:round; stroke-width:4; stroke-opacity:1; fill:none" points="2166.58,113.552 2352.76,113.552 2352.76,293.453 2166.58,293.453 2166.58,113.552 "/>
<path clip-path="url(#clip552)" d="M2166.58 293.453 L2352.76 293.453 L2352.76 473.353 L2166.58 473.353 L2166.58 293.453  Z" fill="#fdcdac" fill-rule="evenodd" fill-opacity="1"/>
<polyline clip-path="url(#clip552)" style="stroke:#000000; stroke-linecap:round; stroke-linejoin:round; stroke-width:4; stroke-opacity:1; fill:none" points="2166.58,293.453 2352.76,293.453 2352.76,473.353 2166.58,473.353 2166.58,293.453 "/>
<path clip-path="url(#clip552)" d="M2166.58 293.453 L2352.76 293.453 L2352.76 473.353 L2166.58 473.353 L2166.58 293.453  Z" fill="#ff0000" fill-rule="evenodd" fill-opacity="1"/>
<polyline clip-path="url(#clip552)" style="stroke:#000000; stroke-linecap:round; stroke-linejoin:round; stroke-width:4; stroke-opacity:1; fill:none" points="2166.58,293.453 2352.76,293.453 2352.76,473.353 2166.58,473.353 2166.58,293.453 "/>
<path clip-path="url(#clip552)" d="M2203.82 329.433 L2315.52 329.433 L2315.52 437.373 L2203.82 437.373 L2203.82 329.433  Z" fill="#fdcdac" fill-rule="evenodd" fill-opacity="1"/>
<polyline clip-path="url(#clip552)" style="stroke:#000000; stroke-linecap:round; stroke-linejoin:round; stroke-width:0; stroke-opacity:1; fill:none" points="2203.82,329.433 2315.52,329.433 2315.52,437.373 2203.82,437.373 2203.82,329.433 "/>
<path clip-path="url(#clip552)" d="M2166.58 473.353 L2352.76 473.353 L2352.76 653.254 L2166.58 653.254 L2166.58 473.353  Z" fill="#fdcdac" fill-rule="evenodd" fill-opacity="1"/>
<polyline clip-path="url(#clip552)" style="stroke:#000000; stroke-linecap:round; stroke-linejoin:round; stroke-width:4; stroke-opacity:1; fill:none" points="2166.58,473.353 2352.76,473.353 2352.76,653.254 2166.58,653.254 2166.58,473.353 "/>
<path clip-path="url(#clip552)" d="M2166.58 653.254 L2352.76 653.254 L2352.76 833.154 L2166.58 833.154 L2166.58 653.254  Z" fill="#fdcdac" fill-rule="evenodd" fill-opacity="1"/>
<polyline clip-path="url(#clip552)" style="stroke:#000000; stroke-linecap:round; stroke-linejoin:round; stroke-width:4; stroke-opacity:1; fill:none" points="2166.58,653.254 2352.76,653.254 2352.76,833.154 2166.58,833.154 2166.58,653.254 "/>
<path clip-path="url(#clip552)" d="M2166.58 833.154 L2352.76 833.154 L2352.76 1013.05 L2166.58 1013.05 L2166.58 833.154  Z" fill="#fdcdac" fill-rule="evenodd" fill-opacity="1"/>
<polyline clip-path="url(#clip552)" style="stroke:#000000; stroke-linecap:round; stroke-linejoin:round; stroke-width:4; stroke-opacity:1; fill:none" points="2166.58,833.154 2352.76,833.154 2352.76,1013.05 2166.58,1013.05 2166.58,833.154 "/>
<path clip-path="url(#clip552)" d="M2166.58 833.154 L2352.76 833.154 L2352.76 1013.05 L2166.58 1013.05 L2166.58 833.154  Z" fill="#0000ff" fill-rule="evenodd" fill-opacity="1"/>
<polyline clip-path="url(#clip552)" style="stroke:#000000; stroke-linecap:round; stroke-linejoin:round; stroke-width:4; stroke-opacity:1; fill:none" points="2166.58,833.154 2352.76,833.154 2352.76,1013.05 2166.58,1013.05 2166.58,833.154 "/>
<path clip-path="url(#clip552)" d="M2203.82 869.134 L2315.52 869.134 L2315.52 977.074 L2203.82 977.074 L2203.82 869.134  Z" fill="#fdcdac" fill-rule="evenodd" fill-opacity="1"/>
<polyline clip-path="url(#clip552)" style="stroke:#000000; stroke-linecap:round; stroke-linejoin:round; stroke-width:0; stroke-opacity:1; fill:none" points="2203.82,869.134 2315.52,869.134 2315.52,977.074 2203.82,977.074 2203.82,869.134 "/>
<path clip-path="url(#clip552)" d="M2166.58 1013.05 L2352.76 1013.05 L2352.76 1192.95 L2166.58 1192.95 L2166.58 1013.05  Z" fill="#fdcdac" fill-rule="evenodd" fill-opacity="1"/>
<polyline clip-path="url(#clip552)" style="stroke:#000000; stroke-linecap:round; stroke-linejoin:round; stroke-width:4; stroke-opacity:1; fill:none" points="2166.58,1013.05 2352.76,1013.05 2352.76,1192.95 2166.58,1192.95 2166.58,1013.05 "/>
<path clip-path="url(#clip552)" d="M2166.58 1192.95 L2352.76 1192.95 L2352.76 1372.86 L2166.58 1372.86 L2166.58 1192.95  Z" fill="#fdcdac" fill-rule="evenodd" fill-opacity="1"/>
<polyline clip-path="url(#clip552)" style="stroke:#000000; stroke-linecap:round; stroke-linejoin:round; stroke-width:4; stroke-opacity:1; fill:none" points="2166.58,1192.95 2352.76,1192.95 2352.76,1372.86 2166.58,1372.86 2166.58,1192.95 "/>
<path clip-path="url(#clip552)" d="M2166.58 1372.86 L2352.76 1372.86 L2352.76 1552.76 L2166.58 1552.76 L2166.58 1372.86  Z" fill="#fdcdac" fill-rule="evenodd" fill-opacity="1"/>
<polyline clip-path="url(#clip552)" style="stroke:#000000; stroke-linecap:round; stroke-linejoin:round; stroke-width:4; stroke-opacity:1; fill:none" points="2166.58,1372.86 2352.76,1372.86 2352.76,1552.76 2166.58,1552.76 2166.58,1372.86 "/>
<polyline clip-path="url(#clip552)" style="stroke:#000000; stroke-linecap:round; stroke-linejoin:round; stroke-width:4; stroke-opacity:1; fill:none" points="-2115.44,113.552 4586.85,113.552 "/>
<polyline clip-path="url(#clip552)" style="stroke:#000000; stroke-linecap:round; stroke-linejoin:round; stroke-width:4; stroke-opacity:1; fill:none" points="-2115.44,293.453 4586.85,293.453 "/>
<polyline clip-path="url(#clip552)" style="stroke:#000000; stroke-linecap:round; stroke-linejoin:round; stroke-width:4; stroke-opacity:1; fill:none" points="-2115.44,473.353 4586.85,473.353 "/>
<polyline clip-path="url(#clip552)" style="stroke:#000000; stroke-linecap:round; stroke-linejoin:round; stroke-width:4; stroke-opacity:1; fill:none" points="-2115.44,653.254 4586.85,653.254 "/>
<polyline clip-path="url(#clip552)" style="stroke:#000000; stroke-linecap:round; stroke-linejoin:round; stroke-width:4; stroke-opacity:1; fill:none" points="-2115.44,833.154 4586.85,833.154 "/>
<polyline clip-path="url(#clip552)" style="stroke:#000000; stroke-linecap:round; stroke-linejoin:round; stroke-width:4; stroke-opacity:1; fill:none" points="-2115.44,1013.05 4586.85,1013.05 "/>
<polyline clip-path="url(#clip552)" style="stroke:#000000; stroke-linecap:round; stroke-linejoin:round; stroke-width:4; stroke-opacity:1; fill:none" points="-2115.44,1192.95 4586.85,1192.95 "/>
<polyline clip-path="url(#clip552)" style="stroke:#000000; stroke-linecap:round; stroke-linejoin:round; stroke-width:4; stroke-opacity:1; fill:none" points="-2115.44,1372.86 4586.85,1372.86 "/>
<polyline clip-path="url(#clip552)" style="stroke:#000000; stroke-linecap:round; stroke-linejoin:round; stroke-width:4; stroke-opacity:1; fill:none" points="-2115.44,1552.76 4586.85,1552.76 "/>
<polyline clip-path="url(#clip552)" style="stroke:#000000; stroke-linecap:round; stroke-linejoin:round; stroke-width:4; stroke-opacity:1; fill:none" points="118.659,-1325.65 118.659,2991.96 "/>
<polyline clip-path="url(#clip552)" style="stroke:#000000; stroke-linecap:round; stroke-linejoin:round; stroke-width:4; stroke-opacity:1; fill:none" points="304.833,-1325.65 304.833,2991.96 "/>
<polyline clip-path="url(#clip552)" style="stroke:#000000; stroke-linecap:round; stroke-linejoin:round; stroke-width:4; stroke-opacity:1; fill:none" points="491.008,-1325.65 491.008,2991.96 "/>
<polyline clip-path="url(#clip552)" style="stroke:#000000; stroke-linecap:round; stroke-linejoin:round; stroke-width:4; stroke-opacity:1; fill:none" points="677.183,-1325.65 677.183,2991.96 "/>
<polyline clip-path="url(#clip552)" style="stroke:#000000; stroke-linecap:round; stroke-linejoin:round; stroke-width:4; stroke-opacity:1; fill:none" points="863.358,-1325.65 863.358,2991.96 "/>
<polyline clip-path="url(#clip552)" style="stroke:#000000; stroke-linecap:round; stroke-linejoin:round; stroke-width:4; stroke-opacity:1; fill:none" points="1049.53,-1325.65 1049.53,2991.96 "/>
<polyline clip-path="url(#clip552)" style="stroke:#000000; stroke-linecap:round; stroke-linejoin:round; stroke-width:4; stroke-opacity:1; fill:none" points="1235.71,-1325.65 1235.71,2991.96 "/>
<polyline clip-path="url(#clip552)" style="stroke:#000000; stroke-linecap:round; stroke-linejoin:round; stroke-width:4; stroke-opacity:1; fill:none" points="1421.88,-1325.65 1421.88,2991.96 "/>
<polyline clip-path="url(#clip552)" style="stroke:#000000; stroke-linecap:round; stroke-linejoin:round; stroke-width:4; stroke-opacity:1; fill:none" points="1608.06,-1325.65 1608.06,2991.96 "/>
<polyline clip-path="url(#clip552)" style="stroke:#000000; stroke-linecap:round; stroke-linejoin:round; stroke-width:4; stroke-opacity:1; fill:none" points="1794.23,-1325.65 1794.23,2991.96 "/>
<polyline clip-path="url(#clip552)" style="stroke:#000000; stroke-linecap:round; stroke-linejoin:round; stroke-width:4; stroke-opacity:1; fill:none" points="1980.41,-1325.65 1980.41,2991.96 "/>
<polyline clip-path="url(#clip552)" style="stroke:#000000; stroke-linecap:round; stroke-linejoin:round; stroke-width:4; stroke-opacity:1; fill:none" points="2166.58,-1325.65 2166.58,2991.96 "/>
<polyline clip-path="url(#clip552)" style="stroke:#000000; stroke-linecap:round; stroke-linejoin:round; stroke-width:4; stroke-opacity:1; fill:none" points="2352.76,-1325.65 2352.76,2991.96 "/>
</svg>
